<?xml version="1.0" encoding="UTF-8" standalone="no"?><!-- Generator: Gravit.io --><svg xmlns="http://www.w3.org/2000/svg" xmlns:xlink="http://www.w3.org/1999/xlink" style="isolation:isolate" viewBox="0 0 406 306" width="406pt" height="306pt"><defs><clipPath id="_clipPath_eiBNzHfcMNxpd1ZIz2ZyfvJC8GIlhxqt"><rect width="406" height="306"/></clipPath></defs><g clip-path="url(#_clipPath_eiBNzHfcMNxpd1ZIz2ZyfvJC8GIlhxqt)"><path d=" M 231.136 255.668 C 228.583 255.697 226.039 255.355 223.584 254.653 C 217.109 252.705 211.313 247.274 207.699 239.773 C 204.462 233.054 203.162 225.655 201.914 218.458 C 201.887 218.329 201.916 218.194 201.993 218.086 C 202.07 217.978 202.189 217.907 202.32 217.89 C 202.448 217.866 202.58 217.895 202.687 217.969 C 202.794 218.044 202.866 218.158 202.888 218.286 C 204.127 225.391 205.406 232.719 208.583 239.317 C 212.084 246.574 217.657 251.801 223.868 253.679 C 228.385 255.029 233.308 254.694 237.957 254.146 C 247.914 252.968 253.983 249.883 256.531 244.727 C 256.622 244.524 256.714 244.341 256.775 244.168 C 255.181 244.615 253.608 245.183 252.065 245.762 C 250.786 246.229 249.467 246.706 248.147 247.122 C 241.725 249.137 234.913 249.583 228.284 248.421 C 225.086 247.853 223.138 246.31 223.067 244.3 C 222.996 242.291 224.731 240.687 227.827 239.794 C 236.309 237.328 245.295 237.164 253.862 239.317 C 256.298 239.926 257.637 240.941 257.922 242.412 C 257.952 242.573 257.972 242.736 257.983 242.9 C 258.368 242.808 258.754 242.727 259.15 242.656 C 263.271 241.925 267.574 242.341 271.736 242.737 C 277.643 243.306 283.226 243.844 288.26 241.367 C 288.507 241.251 288.801 241.355 288.92 241.6 C 288.979 241.717 288.989 241.853 288.947 241.977 C 288.905 242.101 288.815 242.203 288.696 242.26 C 283.408 244.848 277.43 244.29 271.644 243.722 C 267.584 243.326 263.311 242.92 259.322 243.63 C 258.835 243.712 258.307 243.823 257.871 243.935 C 257.752 244.384 257.585 244.82 257.374 245.234 C 254.674 250.715 248.34 253.973 238.038 255.201 C 235.748 255.494 233.444 255.65 231.136 255.668 L 231.136 255.668 Z  M 241.722 238.779 C 237.113 238.78 232.527 239.433 228.101 240.717 C 226.863 241.073 223.98 242.149 224.041 244.25 C 224.102 246.351 227.421 247.295 228.436 247.427 C 234.904 248.581 241.555 248.17 247.833 246.229 C 249.132 245.823 250.441 245.346 251.7 244.889 C 253.435 244.25 255.201 243.6 257.018 243.123 C 257.039 242.951 257.039 242.777 257.018 242.605 C 256.785 241.529 255.679 240.768 253.638 240.251 C 249.742 239.27 245.74 238.776 241.722 238.779 L 241.722 238.779 Z " fill="rgb(230,231,232)"/><path d="M 284.601 100.33 L 350.669 100.33 C 353.335 100.33 355.5 102.495 355.5 105.161 L 355.5 246.449 C 355.5 249.115 353.335 251.28 350.669 251.28 L 284.601 251.28 C 281.935 251.28 279.77 249.115 279.77 246.449 L 279.77 105.161 C 279.77 102.495 281.935 100.33 284.601 100.33 Z" style="stroke:none;fill:#FFFFFF;stroke-miterlimit:10;"/><path d=" M 350.672 251.771 L 284.606 251.771 C 281.671 251.765 279.293 249.387 279.287 246.452 L 279.287 105.154 C 279.293 102.219 281.671 99.841 284.606 99.835 L 350.672 99.835 C 353.611 99.835 355.996 102.215 356.001 105.154 L 356.001 246.452 C 355.996 249.391 353.611 251.771 350.672 251.771 L 350.672 251.771 Z  M 284.606 100.82 C 282.212 100.82 280.272 102.76 280.272 105.154 L 280.272 246.452 C 280.272 248.846 282.212 250.786 284.606 250.786 L 350.672 250.786 C 353.066 250.786 355.006 248.846 355.006 246.452 L 355.006 105.154 C 355.006 102.76 353.066 100.82 350.672 100.82 L 284.606 100.82 Z " fill="rgb(35,31,32)"/><rect x="283.753" y="113.985" width="67.772" height="116.167" transform="matrix(1,0,0,1,0,0)" fill="rgb(104,225,253)"/><path d="M 311.193 235.8 L 324.087 235.8 C 325.723 235.8 327.05 237.129 327.05 238.766 L 327.05 243.714 C 327.05 245.351 325.723 246.68 324.087 246.68 L 311.193 246.68 C 309.557 246.68 308.23 245.351 308.23 243.714 L 308.23 238.766 C 308.23 237.129 309.557 235.8 311.193 235.8 Z" style="stroke:none;fill:#FFFFFF;stroke-miterlimit:10;"/><path d=" M 324.079 247.163 L 311.199 247.163 C 310.281 247.163 309.401 246.798 308.752 246.149 C 308.103 245.5 307.738 244.619 307.738 243.701 L 307.738 238.779 C 307.738 237.861 308.103 236.98 308.752 236.331 C 309.401 235.682 310.281 235.318 311.199 235.318 L 324.079 235.318 C 324.999 235.315 325.882 235.678 326.533 236.328 C 327.185 236.977 327.551 237.859 327.551 238.779 L 327.551 243.701 C 327.545 245.615 325.993 247.163 324.079 247.163 L 324.079 247.163 Z  M 311.199 236.302 C 309.831 236.302 308.722 237.411 308.722 238.779 L 308.722 243.701 C 308.722 245.069 309.831 246.178 311.199 246.178 L 324.079 246.178 C 325.447 246.178 326.556 245.069 326.556 243.701 L 326.556 238.779 C 326.556 237.411 325.447 236.302 324.079 236.302 L 311.199 236.302 Z " fill="rgb(230,231,232)"/><path d=" M 324.485 107.336 L 305.2 107.336 C 305.069 107.339 304.943 107.289 304.849 107.197 C 304.756 107.106 304.703 106.98 304.703 106.849 C 304.703 106.717 304.755 106.591 304.849 106.497 C 304.942 106.404 305.068 106.352 305.2 106.352 L 324.485 106.352 C 324.616 106.352 324.742 106.404 324.833 106.498 C 324.925 106.592 324.975 106.718 324.973 106.849 C 324.975 106.979 324.925 107.105 324.833 107.197 C 324.741 107.289 324.615 107.339 324.485 107.336 L 324.485 107.336 Z " fill="rgb(230,231,232)"/><path d=" M 329.773 107.336 L 327.185 107.336 C 327.056 107.336 326.932 107.285 326.841 107.194 C 326.749 107.102 326.698 106.978 326.698 106.849 C 326.698 106.578 326.915 106.357 327.185 106.352 L 329.773 106.352 C 329.905 106.352 330.032 106.404 330.125 106.497 C 330.218 106.591 330.271 106.717 330.271 106.849 C 330.271 106.98 330.218 107.106 330.125 107.197 C 330.031 107.289 329.904 107.339 329.773 107.336 Z " fill="rgb(230,231,232)"/><path d=" M 342.918 186.973 L 292.32 186.973 C 291.313 186.973 290.348 186.573 289.636 185.861 C 288.924 185.149 288.524 184.184 288.524 183.177 L 288.524 158.188 C 288.521 157.179 288.92 156.211 289.632 155.497 C 290.344 154.783 291.311 154.381 292.32 154.382 L 342.877 154.382 C 344.979 154.382 346.683 156.086 346.683 158.188 L 346.683 183.177 C 346.678 185.259 345 186.951 342.918 186.973 L 342.918 186.973 Z  M 292.32 155.376 C 290.767 155.376 289.508 156.635 289.508 158.188 L 289.508 183.177 C 289.508 184.73 290.767 185.989 292.32 185.989 L 342.877 185.989 C 344.43 185.989 345.689 184.73 345.689 183.177 L 345.689 158.188 C 345.689 156.635 344.43 155.376 342.877 155.376 L 292.32 155.376 Z " fill="rgb(255,255,255)"/><path d=" M 289.052 184.101 C 288.843 184.097 288.659 183.963 288.591 183.766 C 288.523 183.568 288.585 183.349 288.747 183.218 L 313.797 163.395 C 313.998 163.242 314.282 163.263 314.457 163.445 L 329.408 178.955 C 329.6 179.149 329.6 179.461 329.408 179.655 C 329.317 179.747 329.193 179.798 329.063 179.798 C 328.933 179.798 328.809 179.747 328.718 179.655 L 314.082 164.43 L 289.376 183.979 C 289.287 184.059 289.171 184.102 289.052 184.101 Z " fill="rgb(255,255,255)"/><path d=" M 346.227 179.127 C 346.086 179.125 345.952 179.062 345.861 178.955 L 337.559 169.546 L 328.068 177.473 C 327.861 177.647 327.552 177.619 327.378 177.412 C 327.204 177.204 327.232 176.895 327.439 176.722 L 337.295 168.48 C 337.484 168.295 337.786 168.295 337.975 168.48 L 346.592 178.254 C 346.684 178.346 346.735 178.47 346.735 178.599 C 346.735 178.729 346.684 178.853 346.592 178.944 C 346.507 179.061 346.371 179.129 346.227 179.127 Z " fill="rgb(255,255,255)"/><path d=" M 329.053 167.627 C 327.495 167.631 326.089 166.696 325.491 165.257 C 324.893 163.819 325.221 162.162 326.323 161.06 C 327.424 159.959 329.081 159.63 330.52 160.228 C 331.958 160.826 332.894 162.233 332.89 163.791 C 332.884 165.907 331.169 167.622 329.053 167.627 L 329.053 167.627 Z  M 329.053 160.928 C 327.894 160.924 326.847 161.619 326.401 162.688 C 325.955 163.757 326.197 164.99 327.015 165.811 C 327.833 166.632 329.065 166.878 330.136 166.436 C 331.207 165.993 331.905 164.949 331.905 163.791 C 331.905 162.214 330.63 160.934 329.053 160.928 L 329.053 160.928 Z " fill="rgb(255,255,255)"/><path d="M 293.53 211.24 L 296.26 211.24 C 298.175 211.24 299.73 212.796 299.73 214.713 L 299.73 218.977 C 299.73 220.894 298.175 222.45 296.26 222.45 L 293.53 222.45 C 291.615 222.45 290.06 220.894 290.06 218.977 L 290.06 214.713 C 290.06 212.796 291.615 211.24 293.53 211.24 Z" style="stroke:none;fill:#FFFFFF;stroke-miterlimit:10;"/><path d="M 308.69 211.24 L 311.42 211.24 C 313.335 211.24 314.89 212.796 314.89 214.713 L 314.89 218.977 C 314.89 220.894 313.335 222.45 311.42 222.45 L 308.69 222.45 C 306.775 222.45 305.22 220.894 305.22 218.977 L 305.22 214.713 C 305.22 212.796 306.775 211.24 308.69 211.24 Z" style="stroke:none;fill:#FFFFFF;stroke-miterlimit:10;"/><path d="M 323.854 211.24 L 326.586 211.24 C 328.503 211.24 330.06 212.796 330.06 214.713 L 330.06 218.977 C 330.06 220.894 328.503 222.45 326.586 222.45 L 323.854 222.45 C 321.937 222.45 320.38 220.894 320.38 218.977 L 320.38 214.713 C 320.38 212.796 321.937 211.24 323.854 211.24 Z" style="stroke:none;fill:#FFFFFF;stroke-miterlimit:10;"/><path d="M 339.02 211.24 L 341.75 211.24 C 343.665 211.24 345.22 212.796 345.22 214.713 L 345.22 218.977 C 345.22 220.894 343.665 222.45 341.75 222.45 L 339.02 222.45 C 337.105 222.45 335.55 220.894 335.55 218.977 L 335.55 214.713 C 335.55 212.796 337.105 211.24 339.02 211.24 Z" style="stroke:none;fill:#FFFFFF;stroke-miterlimit:10;"/><path d=" M 345.506 123.668 L 289.772 123.668 C 289.641 123.67 289.515 123.62 289.421 123.529 C 289.328 123.437 289.275 123.311 289.275 123.18 C 289.275 123.048 289.327 122.922 289.421 122.829 C 289.514 122.735 289.64 122.683 289.772 122.683 L 345.506 122.683 C 345.638 122.683 345.764 122.735 345.858 122.829 C 345.951 122.922 346.003 123.048 346.003 123.18 C 346.003 123.311 345.951 123.437 345.857 123.529 C 345.764 123.62 345.637 123.67 345.506 123.668 Z " fill="rgb(255,255,255)"/><path d=" M 345.506 131.524 L 289.772 131.524 C 289.492 131.524 289.265 131.296 289.265 131.016 C 289.265 130.736 289.492 130.509 289.772 130.509 L 345.506 130.509 C 345.786 130.509 346.013 130.736 346.013 131.016 C 346.013 131.296 345.786 131.524 345.506 131.524 Z " fill="rgb(255,255,255)"/><path d=" M 345.506 139.38 L 289.772 139.38 C 289.64 139.38 289.514 139.327 289.421 139.234 C 289.327 139.141 289.275 139.014 289.275 138.882 C 289.275 138.751 289.328 138.626 289.421 138.534 C 289.515 138.443 289.641 138.393 289.772 138.395 L 345.506 138.395 C 345.637 138.393 345.764 138.443 345.857 138.534 C 345.951 138.626 346.003 138.751 346.003 138.882 C 346.003 139.014 345.951 139.141 345.858 139.234 C 345.764 139.327 345.638 139.38 345.506 139.38 Z " fill="rgb(255,255,255)"/><path d=" M 345.506 147.236 L 289.772 147.236 C 289.492 147.236 289.265 147.009 289.265 146.728 C 289.265 146.448 289.492 146.221 289.772 146.221 L 345.506 146.221 C 345.786 146.221 346.013 146.448 346.013 146.728 C 346.013 147.009 345.786 147.236 345.506 147.236 Z " fill="rgb(255,255,255)"/><path d=" M 345.506 195.895 L 289.772 195.895 C 289.492 195.895 289.265 195.668 289.265 195.388 C 289.265 195.107 289.492 194.88 289.772 194.88 L 345.506 194.88 C 345.786 194.88 346.013 195.107 346.013 195.388 C 346.013 195.668 345.786 195.895 345.506 195.895 Z " fill="rgb(255,255,255)"/><path d=" M 345.506 203.761 L 289.772 203.761 C 289.641 203.764 289.515 203.714 289.421 203.622 C 289.328 203.531 289.275 203.405 289.275 203.274 C 289.275 203.142 289.327 203.016 289.421 202.922 C 289.514 202.829 289.64 202.777 289.772 202.777 L 345.506 202.777 C 345.638 202.777 345.764 202.829 345.858 202.922 C 345.951 203.016 346.003 203.142 346.003 203.274 C 346.003 203.405 345.951 203.531 345.857 203.622 C 345.764 203.714 345.637 203.764 345.506 203.761 L 345.506 203.761 Z " fill="rgb(255,255,255)"/><path d=" M 335.123 47.299 C 335.123 47.299 336.371 41.98 335.214 38.956 C 334.515 37.206 332.77 36.104 330.89 36.225 C 330.89 36.225 322.486 34.358 320.06 32.165 L 321.156 36.043 C 319.694 35.94 318.266 35.55 316.954 34.896 C 316.609 36.246 317.025 37.676 318.04 38.631 C 316.814 39.218 315.389 39.218 314.163 38.631 C 314.163 38.631 316.467 44.284 321.826 43.706 C 325.318 43.188 331.499 48.466 335.123 47.299 Z " fill="rgb(255,255,255)"/><path d=" M 333.935 47.969 C 332.017 47.969 329.773 46.954 327.581 45.939 C 325.389 44.924 323.328 43.909 321.857 44.122 C 316.183 44.782 313.737 38.854 313.676 38.793 C 313.601 38.597 313.658 38.376 313.817 38.239 C 313.976 38.103 314.204 38.081 314.386 38.184 C 315.231 38.625 316.214 38.72 317.127 38.448 C 316.377 37.388 316.129 36.053 316.447 34.794 C 316.48 34.653 316.578 34.537 316.71 34.48 C 316.844 34.424 316.994 34.424 317.127 34.48 C 318.185 34.967 319.305 35.308 320.456 35.495 L 319.552 32.307 C 319.495 32.095 319.581 31.869 319.766 31.749 C 319.953 31.634 320.194 31.659 320.354 31.81 C 322.547 33.84 330.088 35.555 330.9 35.748 C 332.985 35.612 334.917 36.845 335.671 38.793 C 336.878 41.92 335.671 47.198 335.6 47.421 C 335.567 47.588 335.447 47.724 335.285 47.776 C 334.848 47.912 334.392 47.977 333.935 47.969 Z  M 335.123 47.299 M 322.202 43.077 C 323.866 43.077 325.876 44.021 327.997 45.005 C 330.423 46.142 332.93 47.309 334.706 46.903 C 334.94 45.787 335.721 41.595 334.757 39.138 C 334.134 37.574 332.57 36.593 330.89 36.713 L 330.738 36.713 C 330.433 36.642 324.11 35.231 320.862 33.353 L 321.582 35.901 C 321.624 36.051 321.594 36.212 321.501 36.337 C 321.406 36.459 321.26 36.531 321.105 36.53 C 319.787 36.451 318.494 36.135 317.289 35.596 C 317.17 36.592 317.55 37.583 318.304 38.245 C 318.428 38.355 318.492 38.517 318.477 38.682 C 318.46 38.85 318.356 38.996 318.203 39.067 C 317.249 39.497 316.19 39.638 315.158 39.473 C 316.091 40.996 318.203 43.533 321.745 43.117 C 321.896 43.093 322.049 43.08 322.202 43.077 Z " fill="rgb(35,31,32)"/><path d=" M 342.217 91.807 C 342.217 91.807 349.546 75.78 348.653 65.275 C 348.653 65.275 340.878 54.11 338.502 53.978 C 338.502 53.978 323.47 52.141 318.852 57.794 C 318.852 57.794 315.432 90.68 315.432 90.68 L 342.217 91.807 Z " fill="rgb(104,225,253)"/><path d=" M 314.894 85.29 C 309.504 87.756 304.356 90.719 299.516 94.141 C 295.233 97.044 292.807 127.687 292.807 127.687 C 292.807 127.687 293.69 132.61 299.384 131.838 L 314.376 97.704 C 314.376 97.704 319.725 85.159 314.894 85.29 Z " fill="rgb(35,31,32)"/><path d=" M 298.217 132.386 C 295.389 132.459 292.91 130.505 292.32 127.738 C 292.315 127.697 292.315 127.656 292.32 127.616 C 292.574 124.449 294.898 96.658 299.242 93.705 C 304.117 90.277 309.299 87.307 314.721 84.834 C 314.778 84.819 314.837 84.819 314.894 84.834 C 315.666 84.775 316.412 85.131 316.853 85.768 C 318.751 88.559 315.249 96.933 314.823 97.948 L 299.831 132.092 C 299.761 132.248 299.615 132.356 299.445 132.376 C 299.037 132.408 298.626 132.411 298.217 132.386 L 298.217 132.386 Z  M 293.335 127.636 C 293.447 128.164 294.421 131.849 299.08 131.361 L 313.96 97.491 C 314.975 95.055 317.411 88.275 316.061 86.326 C 315.833 85.992 315.449 85.801 315.046 85.818 C 309.723 88.281 304.628 91.208 299.821 94.568 C 296.451 96.79 293.985 119.11 293.335 127.636 Z " fill="rgb(35,31,32)"/><path d=" M 342.816 88.437 C 342.816 88.437 321.288 89.056 316.223 88.315 C 316.223 88.315 315.939 88.376 312.224 95.217 C 308.509 102.058 313.848 133.33 313.848 133.33 C 313.848 133.33 318.74 138.507 322.608 137.766 L 327.185 102.109 C 327.185 102.109 334.991 102.342 339.365 99.237 C 342.37 97.054 342.238 92.395 342.816 88.437 Z " fill="rgb(35,31,32)"/><path d=" M 321.816 138.334 C 317.939 138.334 313.696 133.868 313.483 133.665 C 313.416 133.596 313.374 133.507 313.361 133.412 C 313.138 132.133 308.032 101.947 311.788 94.984 C 315.543 88.021 315.848 87.879 316.122 87.879 L 316.294 87.879 C 321.258 88.62 342.593 88.011 342.806 88.001 C 342.954 87.991 343.097 88.051 343.194 88.163 C 343.292 88.274 343.332 88.424 343.303 88.569 C 343.202 89.3 343.111 90.061 343.029 90.822 C 342.654 94.253 342.268 97.795 339.609 99.703 C 335.752 102.464 329.378 102.667 327.622 102.667 L 323.095 137.786 C 323.068 137.999 322.909 138.17 322.699 138.213 C 322.409 138.279 322.113 138.32 321.816 138.334 Z  M 314.305 133.097 C 314.985 133.787 318.954 137.624 322.161 137.33 L 326.698 102.048 C 326.725 101.792 326.949 101.604 327.206 101.622 C 327.287 101.622 334.889 101.805 339.04 98.841 C 341.334 97.186 341.7 93.867 342.085 90.65 C 342.146 90.081 342.207 89.503 342.278 88.944 C 338.807 89.036 321.501 89.462 316.467 88.833 C 316.173 89.259 315.269 90.69 312.681 95.451 C 309.189 101.835 313.909 130.732 314.305 133.097 Z " fill="rgb(35,31,32)"/><path d=" M 318.842 57.794 C 318.842 57.794 315.432 64.361 313.422 67.731 C 311.5 70.622 309.366 73.367 307.037 75.942 C 307.037 75.942 291.559 81.444 291.467 81.738 C 291.467 81.738 292.929 87.239 292.929 87.239 C 292.929 87.239 309.169 86.072 311.849 84.803 C 311.849 84.803 319.969 77.292 319.969 77.292 L 318.842 57.794 Z " fill="rgb(104,225,253)"/><path d=" M 325.145 54.272 L 326.069 59.875 C 327.263 61.595 329.55 62.161 331.408 61.194 C 334.95 59.631 334.95 56.952 334.95 56.952 L 333.062 46.599 C 333.062 46.599 329.794 45.33 328.099 38.956 C 328.099 38.956 319.979 39.575 320.537 42.61 C 320.537 42.61 320.435 48.324 321.298 51.105 C 321.928 52.768 323.392 53.973 325.145 54.272 Z " fill="rgb(255,255,255)"/><path d=" M 329.418 62.148 C 327.914 62.101 326.519 61.349 325.653 60.118 C 325.62 60.061 325.596 60 325.582 59.936 L 324.709 54.648 C 322.895 54.285 321.411 52.987 320.811 51.237 C 319.928 48.405 320.019 42.813 320.019 42.579 C 319.941 42.015 320.103 41.445 320.466 41.006 C 322.06 38.976 327.429 38.489 328.038 38.448 C 328.276 38.43 328.493 38.583 328.556 38.814 C 330.149 44.812 333.194 46.111 333.225 46.122 C 333.383 46.182 333.498 46.321 333.529 46.487 L 335.417 56.84 C 335.417 57.053 335.417 59.976 331.611 61.631 C 330.924 61.954 330.177 62.13 329.418 62.148 Z  M 326.536 59.682 C 327.616 61.147 329.606 61.601 331.215 60.748 C 334.361 59.367 334.443 57.043 334.443 56.942 L 332.605 46.934 C 331.773 46.497 329.215 44.741 327.713 39.484 C 325.947 39.666 322.283 40.296 321.237 41.635 C 321.031 41.88 320.945 42.204 321.004 42.518 C 321.004 42.671 320.923 48.284 321.755 50.963 C 322.3 52.452 323.609 53.528 325.176 53.775 L 325.379 53.836 C 325.511 53.911 325.604 54.041 325.632 54.191 L 326.536 59.682 Z " fill="rgb(35,31,32)"/><path d=" M 330.89 46.802 C 330.93 46.277 331.136 45.779 331.479 45.381 C 331.815 45.022 332.21 44.723 332.646 44.498 C 332.874 44.353 333.13 44.26 333.397 44.224 C 333.588 44.222 333.777 44.256 333.955 44.325 C 334.371 44.455 334.729 44.724 334.97 45.086 C 335.129 45.401 335.209 45.749 335.204 46.101 C 335.232 46.492 335.205 46.885 335.123 47.269 C 334.945 48.038 334.466 48.703 333.793 49.116 C 333.119 49.519 332.315 49.646 331.55 49.471" fill="rgb(255,255,255)"/><path d=" M 332.24 50.08 C 331.966 50.077 331.694 50.043 331.428 49.979 C 331.162 49.914 330.999 49.646 331.063 49.38 C 331.094 49.252 331.175 49.143 331.287 49.076 C 331.4 49.009 331.535 48.991 331.661 49.025 C 332.302 49.169 332.974 49.064 333.539 48.73 C 334.095 48.38 334.492 47.826 334.645 47.187 C 334.713 46.853 334.737 46.512 334.717 46.172 C 334.726 45.892 334.666 45.613 334.544 45.36 C 334.357 45.089 334.08 44.891 333.762 44.802 C 333.644 44.764 333.521 44.741 333.397 44.731 C 333.204 44.766 333.02 44.843 332.859 44.954 C 332.48 45.148 332.136 45.405 331.844 45.716 C 331.567 46.032 331.402 46.432 331.377 46.852 C 331.356 47.125 331.122 47.331 330.849 47.319 C 330.718 47.312 330.596 47.251 330.51 47.152 C 330.424 47.052 330.381 46.922 330.393 46.792 C 330.437 46.16 330.682 45.558 331.093 45.076 C 331.462 44.663 331.902 44.319 332.392 44.061 C 332.7 43.871 333.047 43.753 333.407 43.716 C 333.663 43.715 333.918 43.76 334.158 43.848 C 334.705 44.012 335.172 44.374 335.468 44.863 C 335.671 45.255 335.775 45.69 335.772 46.132 C 335.798 46.567 335.767 47.004 335.681 47.431 C 335.31 48.993 333.916 50.097 332.311 50.1 L 332.24 50.08 Z " fill="rgb(35,31,32)"/><path d=" M 325.754 45.299 C 325.754 45.299 324.232 48.466 324.739 48.903 C 324.739 48.903 326.515 48.822 326.515 48.822" fill="rgb(255,255,255)"/><path d=" M 325.389 49.562 C 325.054 49.579 324.724 49.479 324.455 49.278 C 324.242 49.106 323.623 48.598 325.318 45.086 C 325.436 44.846 325.723 44.743 325.967 44.853 C 326.087 44.908 326.18 45.009 326.224 45.133 C 326.268 45.258 326.259 45.394 326.201 45.513 C 325.707 46.469 325.365 47.496 325.186 48.558 C 325.595 48.607 326.01 48.54 326.383 48.365 C 326.636 48.265 326.922 48.381 327.033 48.629 C 327.083 48.751 327.082 48.888 327.031 49.01 C 326.98 49.132 326.882 49.229 326.759 49.278 C 326.323 49.455 325.859 49.551 325.389 49.562 Z " fill="rgb(35,31,32)"/><path d=" M 327.706 44.541 C 327.668 44.167 327.854 43.842 328.122 43.815 C 328.389 43.788 328.637 44.069 328.675 44.442 C 328.713 44.815 328.527 45.141 328.259 45.168 C 327.992 45.195 327.744 44.914 327.706 44.541 Z " fill="rgb(35,31,32)"/><path d=" M 323.6 45.261 C 323.565 44.887 323.754 44.563 324.021 44.538 C 324.289 44.513 324.535 44.795 324.57 45.169 C 324.606 45.543 324.417 45.867 324.149 45.892 C 323.882 45.917 323.636 45.635 323.6 45.261 Z " fill="rgb(35,31,32)"/><path d=" M 326.201 52.049 C 325.271 52.03 324.353 51.84 323.491 51.491 C 323.37 51.44 323.275 51.342 323.227 51.22 C 323.179 51.097 323.183 50.961 323.237 50.841 C 323.352 50.598 323.637 50.486 323.886 50.588 C 323.886 50.588 326.191 51.603 327.743 50.72 C 328.568 50.185 329.094 49.294 329.164 48.314 C 329.209 48.034 329.473 47.843 329.753 47.888 C 330.033 47.933 330.224 48.196 330.179 48.476 C 330.066 49.759 329.35 50.911 328.251 51.582 C 327.62 51.915 326.913 52.076 326.201 52.049 Z " fill="rgb(35,31,32)"/><path d=" M 325.145 54.272 C 325.145 54.272 328.758 54.495 330.626 52.983 C 330.626 52.983 329.124 58.058 325.785 58.058 L 325.145 54.272 Z " fill="rgb(35,31,32)"/><path d=" M 325.815 58.616 C 325.574 58.618 325.369 58.44 325.338 58.2 L 324.698 54.363 C 324.67 54.213 324.715 54.058 324.82 53.947 C 324.92 53.835 325.066 53.775 325.216 53.785 C 325.216 53.785 328.667 53.978 330.352 52.607 C 330.522 52.478 330.756 52.471 330.933 52.59 C 331.11 52.71 331.191 52.929 331.134 53.135 C 331.073 53.348 329.499 58.555 325.825 58.616 L 325.815 58.616 Z  M 325.815 54.79 L 326.282 57.591 C 328.007 57.297 329.154 55.409 329.753 54.11 C 328.462 54.576 327.096 54.803 325.724 54.78 L 325.815 54.79 Z " fill="rgb(35,31,32)"/><path d=" M 345.222 56.586 C 348.115 57.094 359.817 84.154 355.808 87.239 C 349.556 92.061 327.794 87.239 327.794 87.239 L 329.571 78.845 C 329.571 78.845 343.557 79.241 343.78 76.369 C 343.78 76.369 335.66 60.2 336.736 58.21 C 337.812 56.221 345.222 56.586 345.222 56.586 Z " fill="rgb(104,225,253)"/><path d=" M 331.073 81.565 C 328.75 81.713 326.418 81.601 324.12 81.23 C 322.419 80.817 320.673 80.616 318.923 80.632 C 316.617 80.741 314.349 81.26 312.224 82.164 C 312.134 82.193 312.053 82.245 311.991 82.317 C 311.788 82.601 312.275 82.885 312.63 82.895 C 313.552 82.913 314.472 82.797 315.36 82.55 C 313.161 83.363 311.082 84.469 309.179 85.839 C 308.956 85.991 308.722 86.234 308.824 86.478 C 308.925 86.722 309.372 86.681 309.656 86.549 L 314.65 84.265 C 313.354 84.785 312.154 85.515 311.097 86.427 C 310.955 86.559 310.783 86.732 310.834 86.925 C 310.884 87.117 311.402 87.199 311.717 87.046 C 313.238 86.286 314.691 85.396 316.061 84.387 L 313.016 86.762 C 313.016 87.006 313.249 87.219 313.503 87.229 C 313.757 87.213 314.003 87.129 314.214 86.986 L 317.654 84.956 L 315.513 86.458 C 315.168 86.691 314.782 87.077 314.954 87.473 C 315.127 87.869 315.807 87.777 316.254 87.584 C 318.019 86.819 319.864 86.254 321.755 85.899 C 322.414 85.685 323.095 85.545 323.785 85.483 C 324.848 85.624 325.897 85.855 326.921 86.174 C 328.484 86.519 330.037 86.874 331.59 87.189" fill="rgb(255,255,255)"/><path d=" M 315.452 88.234 C 315.303 88.237 315.155 88.213 315.015 88.163 C 314.784 88.078 314.596 87.902 314.498 87.676 C 314.453 87.577 314.429 87.47 314.427 87.361 L 314.427 87.361 C 314.147 87.558 313.815 87.668 313.473 87.676 C 313.194 87.661 312.933 87.533 312.752 87.32 C 312.695 87.253 312.647 87.177 312.61 87.097 C 312.397 87.219 312.173 87.331 311.95 87.442 C 311.608 87.631 311.2 87.661 310.834 87.523 C 310.624 87.425 310.473 87.233 310.428 87.006 C 310.407 86.905 310.407 86.802 310.428 86.701 L 309.88 86.955 C 309.567 87.119 309.203 87.156 308.865 87.057 C 308.672 86.987 308.517 86.84 308.438 86.651 C 308.347 86.458 308.235 85.96 308.936 85.463 C 310.055 84.655 311.236 83.936 312.468 83.311 C 312.103 83.27 311.778 83.064 311.585 82.753 C 311.472 82.523 311.495 82.25 311.646 82.042 C 311.753 81.904 311.897 81.798 312.062 81.738 C 314.237 80.812 316.561 80.283 318.923 80.175 C 320.491 80.138 322.056 80.302 323.582 80.662 L 324.221 80.774 C 326.489 81.139 328.79 81.251 331.083 81.109 L 331.083 81.109 C 331.327 81.108 331.529 81.301 331.54 81.545 C 331.54 81.792 331.349 81.996 331.103 82.012 C 328.746 82.15 326.381 82.035 324.049 81.667 L 323.399 81.545 C 321.943 81.204 320.449 81.044 318.954 81.068 C 316.819 81.176 314.717 81.635 312.732 82.428 C 313.582 82.447 314.431 82.337 315.249 82.103 C 315.484 82.025 315.739 82.152 315.817 82.388 C 315.896 82.623 315.768 82.877 315.533 82.956 C 313.42 83.735 311.417 84.786 309.575 86.082 L 313.3 84.377 C 313.686 84.184 314.071 84.001 314.467 83.849 C 314.694 83.751 314.958 83.856 315.056 84.083 C 315.154 84.31 315.05 84.573 314.823 84.671 L 313.696 85.189 C 312.938 85.584 312.224 86.057 311.564 86.6 C 313.049 85.857 314.466 84.984 315.797 83.991 C 315.892 83.919 316.012 83.888 316.131 83.905 C 316.249 83.922 316.355 83.986 316.426 84.083 C 316.499 84.177 316.532 84.296 316.517 84.414 C 316.502 84.532 316.44 84.64 316.345 84.712 L 313.889 86.58 L 313.95 86.58 L 317.391 84.55 C 317.597 84.456 317.841 84.529 317.963 84.72 C 318.085 84.911 318.049 85.162 317.878 85.311 L 315.726 86.813 C 315.381 87.057 315.31 87.239 315.32 87.26 C 315.564 87.307 315.816 87.264 316.03 87.138 C 317.831 86.356 319.714 85.777 321.643 85.412 L 322.293 85.24 C 322.775 85.084 323.279 85.006 323.785 85.006 C 324.561 85.067 325.327 85.217 326.069 85.453 C 326.394 85.544 326.708 85.636 327.013 85.696 L 331.682 86.772 C 331.923 86.828 332.073 87.069 332.017 87.31 C 331.961 87.551 331.72 87.701 331.479 87.645 C 329.926 87.29 328.373 86.925 326.81 86.63 C 326.495 86.559 326.17 86.468 325.795 86.377 C 325.135 86.165 324.454 86.025 323.765 85.96 C 323.343 85.967 322.924 86.043 322.526 86.184 C 322.293 86.245 322.059 86.316 321.816 86.356 C 319.952 86.72 318.135 87.289 316.396 88.051 C 316.096 88.173 315.775 88.236 315.452 88.234 Z " fill="rgb(35,31,32)"/><path d=" M 320.344 60.169 C 319.573 60.951 317.634 73.253 316.924 79.058" fill="rgb(255,255,255)"/><path d=" M 316.924 79.515 L 316.863 79.515 C 316.619 79.483 316.447 79.261 316.477 79.018 C 316.913 75.404 319.004 60.9 320.03 59.855 C 320.209 59.715 320.464 59.729 320.627 59.887 C 320.791 60.046 320.813 60.3 320.679 60.484 C 320.019 61.387 318.152 72.725 317.37 79.129 C 317.336 79.35 317.147 79.513 316.924 79.515 Z " fill="rgb(35,31,32)"/><path d=" M 291.153 90.64 L 291.498 92.944 L 323.349 97.592 L 322.811 95.217 L 291.153 90.64 L 291.153 90.64 Z " fill="rgb(255,255,255)"/><path d=" M 323.349 98.09 L 323.278 98.09 L 291.427 93.431 C 291.212 93.398 291.044 93.229 291.011 93.015 L 290.666 90.711 C 290.636 90.555 290.686 90.396 290.797 90.284 C 290.912 90.177 291.068 90.125 291.224 90.142 L 322.882 94.73 C 323.082 94.759 323.243 94.908 323.288 95.106 L 323.785 97.491 C 323.827 97.646 323.785 97.811 323.673 97.927 C 323.59 98.021 323.474 98.079 323.349 98.09 Z  M 291.884 92.507 L 322.668 97.004 L 322.364 95.654 L 291.691 91.218 L 291.884 92.507 Z " fill="rgb(35,31,32)"/><path d=" M 291.153 90.64 C 291.153 90.64 298.4 84.418 298.643 84.478 C 298.643 84.478 331.458 88.437 331.458 88.437 L 322.77 95.217 L 291.153 90.64 Z " fill="rgb(255,255,255)"/><path d=" M 322.77 95.715 L 322.77 95.715 L 291.082 91.096 C 290.889 91.066 290.732 90.927 290.676 90.741 C 290.619 90.557 290.679 90.356 290.828 90.234 C 298.278 83.839 298.44 83.89 298.755 83.961 C 299.242 84.042 320.405 86.58 331.519 87.909 C 331.719 87.935 331.884 88.08 331.935 88.275 C 331.995 88.466 331.926 88.675 331.763 88.792 L 323.115 95.572 C 323.023 95.664 322.899 95.715 322.77 95.715 Z  M 292.32 90.305 L 322.689 94.7 L 330.24 88.782 C 320.435 87.605 300.948 85.27 298.775 84.986 C 298.045 85.443 294.746 88.214 292.32 90.305 Z " fill="rgb(35,31,32)"/><path d=" M 323.349 97.592 L 331.661 90.64 L 331.458 88.437 L 322.811 95.217 L 323.349 97.592 L 323.349 97.592 Z " fill="rgb(255,255,255)"/><path d=" M 323.349 98.09 C 323.298 98.099 323.247 98.099 323.196 98.09 C 323.031 98.04 322.906 97.904 322.871 97.734 L 322.334 95.359 C 322.286 95.174 322.354 94.978 322.506 94.862 L 331.154 88.051 C 331.297 87.939 331.49 87.914 331.657 87.986 C 331.824 88.058 331.939 88.215 331.956 88.396 L 332.149 90.599 C 332.166 90.761 332.101 90.921 331.976 91.025 L 323.663 97.988 C 323.572 98.055 323.462 98.091 323.349 98.09 Z  M 323.349 95.41 L 323.643 96.699 L 331.134 90.426 L 331.042 89.411 L 323.349 95.41 Z " fill="rgb(35,31,32)"/><path d=" M 291.153 90.64 L 285.032 70.126 L 318.608 75.851 L 322.811 95.217 L 291.153 90.64 L 291.153 90.64 Z " fill="rgb(255,255,255)"/><path d=" M 322.77 95.715 L 322.77 95.715 L 291.082 91.096 C 290.887 91.07 290.727 90.93 290.676 90.741 L 284.586 70.238 C 284.538 70.074 284.578 69.897 284.691 69.769 C 284.805 69.642 284.975 69.581 285.144 69.609 L 318.71 75.364 C 318.906 75.396 319.063 75.545 319.106 75.739 L 323.288 95.156 C 323.325 95.313 323.279 95.478 323.166 95.593 C 323.059 95.69 322.913 95.735 322.77 95.715 Z  M 291.488 90.193 L 322.141 94.628 L 318.192 76.277 L 285.712 70.746 L 291.488 90.193 Z " fill="rgb(35,31,32)"/><path d=" M 338.381 90.162 L 338.299 90.162 L 331.509 88.995 C 331.276 88.953 331.103 88.755 331.093 88.518 L 330.88 80.398 C 330.868 80.138 331.067 79.917 331.326 79.901 L 343.334 78.663 L 337.995 60.301 C 337.923 60.041 338.071 59.771 338.33 59.692 C 338.456 59.654 338.593 59.668 338.709 59.731 C 338.825 59.794 338.912 59.901 338.949 60.027 L 344.44 78.916 C 344.482 79.054 344.46 79.203 344.379 79.322 C 344.298 79.443 344.169 79.525 344.024 79.546 L 331.844 80.794 L 332.047 88.072 L 338.442 89.168 C 338.722 89.193 338.929 89.441 338.903 89.721 C 338.878 90.001 338.631 90.208 338.35 90.183 L 338.381 90.162 Z " fill="rgb(35,31,32)"/><path d=" M 293.832 122.216 C 293.273 121.699 292.687 121.211 292.076 120.755 C 290.757 119.74 287.925 118.308 287.113 120.643 C 286.606 122.084 287.387 124.003 287.925 125.332 C 288.988 127.875 290.607 130.147 292.665 131.98 C 294.462 133.604 300.186 135.949 299.77 131.422 C 299.66 130.603 299.398 129.811 298.999 129.088 C 297.707 126.503 295.957 124.175 293.832 122.216 L 293.832 122.216 Z " fill="rgb(255,255,255)"/><path d=" M 297.659 134.508 C 295.71 134.35 293.86 133.583 292.371 132.315 C 290.261 130.437 288.6 128.11 287.509 125.505 C 286.961 124.145 286.129 122.105 286.687 120.491 C 286.889 119.804 287.417 119.261 288.098 119.039 C 289.752 118.542 291.934 120.054 292.35 120.399 C 292.971 120.862 293.567 121.357 294.137 121.881 L 294.137 121.881 C 296.308 123.875 298.097 126.248 299.415 128.885 C 299.838 129.659 300.114 130.506 300.227 131.382 C 300.389 133.148 299.658 133.909 299.009 134.224 C 298.588 134.425 298.125 134.522 297.659 134.508 Z  M 288.808 119.841 C 288.657 119.839 288.507 119.86 288.361 119.902 C 287.951 120.037 287.64 120.375 287.539 120.795 C 287.093 122.074 287.844 123.932 288.341 125.16 C 289.379 127.641 290.961 129.857 292.97 131.646 C 294.248 132.813 297.253 134.102 298.613 133.422 C 299.192 133.127 299.425 132.488 299.334 131.463 C 299.223 130.701 298.975 129.965 298.603 129.291 C 297.343 126.749 295.623 124.464 293.528 122.551 C 292.98 122.044 292.401 121.536 291.812 121.12 C 290.954 120.415 289.911 119.971 288.808 119.841 L 288.808 119.841 Z " fill="rgb(35,31,32)"/><path d=" M 313.168 124.744 C 312.777 124.47 312.305 124.337 311.828 124.368 C 311.53 124.439 311.256 124.59 311.037 124.804 C 310.208 125.658 309.812 126.842 309.961 128.022 C 310.107 129.185 310.468 130.311 311.026 131.341 C 312.579 134.569 314.68 137.695 317.797 139.461 C 318.356 139.793 318.966 140.03 319.603 140.161 C 325.145 141.176 322.851 135.675 321.491 133.188 C 319.563 129.649 316.679 126.723 313.168 124.744 Z " fill="rgb(255,255,255)"/><path d=" M 320.791 140.709 C 320.365 140.705 319.941 140.665 319.522 140.588 C 318.838 140.447 318.183 140.193 317.583 139.837 C 314.843 138.294 312.569 135.584 310.62 131.544 C 310.043 130.459 309.665 129.28 309.504 128.063 C 309.341 126.743 309.794 125.422 310.732 124.48 C 311.01 124.203 311.363 124.012 311.747 123.932 C 312.324 123.877 312.901 124.024 313.381 124.348 L 313.381 124.348 C 316.96 126.368 319.905 129.345 321.887 132.945 C 322.902 134.751 324.353 138.02 323.135 139.735 C 322.566 140.432 321.686 140.797 320.791 140.709 Z  M 312.021 124.804 L 311.899 124.804 C 311.687 124.86 311.494 124.972 311.341 125.129 C 310.61 125.883 310.266 126.931 310.407 127.971 C 310.545 129.081 310.889 130.155 311.422 131.138 C 313.28 135.015 315.482 137.593 317.999 139.035 C 318.513 139.345 319.076 139.565 319.664 139.684 C 321.055 139.938 321.968 139.766 322.374 139.197 C 323.166 138.091 322.222 135.462 321.075 133.371 C 319.187 129.922 316.375 127.068 312.955 125.129 C 312.674 124.948 312.354 124.836 312.021 124.804 L 312.021 124.804 Z " fill="rgb(35,31,32)"/><path d=" M 310.945 107.336 C 310.691 107.337 310.479 107.143 310.458 106.89 C 310.458 106.666 309.9 101.216 310.834 98.11 C 310.883 97.941 311.018 97.812 311.188 97.77 C 311.359 97.728 311.539 97.78 311.66 97.907 C 311.782 98.033 311.827 98.215 311.778 98.384 C 310.905 101.307 311.422 106.748 311.432 106.798 C 311.456 107.07 311.257 107.309 310.986 107.336 L 310.945 107.336 Z " fill="rgb(255,255,255)"/><path d="M 49.853 69.08 L 251.497 69.08 C 255.726 69.08 259.16 72.514 259.16 76.743 L 259.16 215.097 C 259.16 219.326 255.726 222.76 251.497 222.76 L 49.853 222.76 C 45.624 222.76 42.19 219.326 42.19 215.097 L 42.19 76.743 C 42.19 72.514 45.624 69.08 49.853 69.08 Z" style="stroke:none;fill:#FFFFFF;stroke-miterlimit:10;"/><path d=" M 251.497 223.259 L 49.857 223.259 C 45.384 223.232 41.764 219.612 41.737 215.139 L 41.737 76.744 C 41.737 72.26 45.372 68.624 49.857 68.624 L 251.497 68.624 C 255.981 68.624 259.617 72.26 259.617 76.744 L 259.617 215.109 C 259.625 217.268 258.773 219.341 257.249 220.87 C 255.726 222.4 253.656 223.259 251.497 223.259 L 251.497 223.259 Z  M 49.857 69.578 C 45.898 69.578 42.686 72.785 42.681 76.744 L 42.681 215.109 C 42.686 219.068 45.898 222.275 49.857 222.275 L 251.497 222.275 C 255.452 222.269 258.657 219.064 258.663 215.109 L 258.663 76.744 C 258.657 72.789 255.452 69.584 251.497 69.578 L 49.857 69.578 Z " fill="rgb(35,31,32)"/><rect x="50.212" y="88.955" width="200.919" height="125.728" transform="matrix(1,0,0,1,0,0)" fill="rgb(35,31,32)"/><path d=" M 251.131 215.19 L 50.212 215.19 C 49.932 215.19 49.705 214.963 49.705 214.683 L 49.705 88.955 C 49.705 88.674 49.932 88.447 50.212 88.447 L 251.182 88.447 C 251.462 88.447 251.69 88.674 251.69 88.955 L 251.69 214.683 C 251.69 214.827 251.63 214.964 251.523 215.061 C 251.417 215.157 251.274 215.205 251.131 215.19 Z  M 50.75 214.175 L 250.705 214.175 L 250.705 89.462 L 50.75 89.462 L 50.75 214.175 Z " fill="rgb(35,31,32)"/><rect x="50.212" y="77.16" width="200.919" height="11.794" transform="matrix(1,0,0,1,0,0)" fill="rgb(104,225,253)"/><path d=" M 251.131 89.462 L 50.212 89.462 C 49.932 89.462 49.705 89.235 49.705 88.955 L 49.705 77.16 C 49.705 76.88 49.932 76.653 50.212 76.653 L 251.182 76.653 C 251.462 76.653 251.69 76.88 251.69 77.16 L 251.69 88.955 C 251.69 89.098 251.63 89.236 251.523 89.333 C 251.417 89.429 251.274 89.476 251.131 89.462 Z  M 50.75 88.447 L 250.705 88.447 L 250.705 77.668 L 50.75 77.668 L 50.75 88.447 Z " fill="rgb(104,225,253)"/><path d=" M 90.497 101.47 L 73.242 101.47 C 73.111 101.472 72.985 101.422 72.891 101.33 C 72.798 101.239 72.745 101.113 72.745 100.982 C 72.745 100.708 72.968 100.485 73.242 100.485 L 90.497 100.485 C 90.628 100.485 90.754 100.538 90.846 100.631 C 90.937 100.725 90.987 100.851 90.985 100.982 C 90.987 101.112 90.937 101.238 90.845 101.33 C 90.753 101.422 90.627 101.472 90.497 101.47 Z " fill="rgb(255,255,255)"/><path d=" M 129.423 101.47 L 94.913 101.47 C 94.783 101.472 94.657 101.422 94.565 101.33 C 94.473 101.238 94.423 101.112 94.425 100.982 C 94.423 100.851 94.473 100.725 94.565 100.631 C 94.656 100.538 94.782 100.485 94.913 100.485 L 129.423 100.485 C 129.697 100.485 129.92 100.708 129.92 100.982 C 129.92 101.113 129.867 101.239 129.774 101.33 C 129.68 101.422 129.554 101.472 129.423 101.47 L 129.423 101.47 Z " fill="rgb(104,225,253)"/><path d=" M 141.349 108.696 L 106.839 108.696 C 106.559 108.696 106.331 108.469 106.331 108.189 C 106.331 107.909 106.559 107.681 106.839 107.681 L 141.349 107.681 C 141.629 107.681 141.856 107.909 141.856 108.189 C 141.856 108.469 141.629 108.696 141.349 108.696 Z " fill="rgb(104,225,253)"/><path d=" M 94.547 108.696 L 77.292 108.696 C 77.012 108.696 76.785 108.469 76.785 108.189 C 76.785 107.909 77.012 107.681 77.292 107.681 L 94.547 107.681 C 94.828 107.681 95.055 107.909 95.055 108.189 C 95.055 108.469 94.828 108.696 94.547 108.696 Z " fill="rgb(255,255,255)"/><path d=" M 98.607 115.913 L 81.352 115.913 C 81.078 115.913 80.855 115.69 80.855 115.416 C 80.855 115.285 80.908 115.159 81.001 115.068 C 81.095 114.976 81.221 114.926 81.352 114.928 L 98.607 114.928 C 98.737 114.926 98.863 114.976 98.955 115.068 C 99.047 115.16 99.097 115.286 99.094 115.416 C 99.097 115.547 99.047 115.673 98.955 115.767 C 98.864 115.86 98.738 115.913 98.607 115.913 L 98.607 115.913 Z " fill="rgb(255,255,255)"/><path d=" M 147.51 115.913 L 104.362 115.913 C 104.231 115.913 104.106 115.86 104.014 115.767 C 103.922 115.673 103.872 115.547 103.875 115.416 C 103.872 115.286 103.923 115.16 104.015 115.068 C 104.107 114.976 104.232 114.926 104.362 114.928 L 147.51 114.928 C 147.641 114.926 147.767 114.976 147.861 115.068 C 147.955 115.159 148.007 115.285 148.007 115.416 C 148.007 115.69 147.785 115.913 147.51 115.913 Z " fill="rgb(104,225,253)"/><path d=" M 102.657 123.13 L 85.402 123.13 C 85.131 123.124 84.915 122.903 84.915 122.632 C 84.915 122.503 84.966 122.379 85.058 122.288 C 85.149 122.196 85.273 122.145 85.402 122.145 L 102.657 122.145 C 102.788 122.142 102.915 122.192 103.008 122.284 C 103.102 122.376 103.154 122.501 103.154 122.632 C 103.154 122.907 102.932 123.13 102.657 123.13 L 102.657 123.13 Z " fill="rgb(255,255,255)"/><path d=" M 156.432 123.13 L 105.134 123.13 C 104.859 123.13 104.636 122.907 104.636 122.632 C 104.636 122.501 104.689 122.376 104.783 122.284 C 104.876 122.192 105.003 122.142 105.134 122.145 L 156.432 122.145 C 156.563 122.142 156.689 122.192 156.783 122.284 C 156.876 122.376 156.929 122.501 156.929 122.632 C 156.929 122.764 156.877 122.891 156.783 122.984 C 156.69 123.077 156.564 123.13 156.432 123.13 L 156.432 123.13 Z " fill="rgb(104,225,253)"/><path d=" M 98.079 130.346 L 80.824 130.346 C 80.544 130.346 80.317 130.119 80.317 129.839 C 80.317 129.559 80.544 129.331 80.824 129.331 L 98.079 129.331 C 98.36 129.331 98.587 129.559 98.587 129.839 C 98.587 130.119 98.36 130.346 98.079 130.346 Z " fill="rgb(255,255,255)"/><path d=" M 129.423 130.346 L 101.601 130.346 C 101.321 130.346 101.094 130.119 101.094 129.839 C 101.094 129.559 101.321 129.331 101.601 129.331 L 129.423 129.331 C 129.703 129.331 129.93 129.559 129.93 129.839 C 129.93 130.119 129.703 130.346 129.423 130.346 L 129.423 130.346 Z " fill="rgb(104,225,253)"/><path d=" M 167.871 130.346 L 140.07 130.346 C 139.79 130.346 139.563 130.119 139.563 129.839 C 139.563 129.559 139.79 129.331 140.07 129.331 L 167.891 129.331 C 168.171 129.331 168.399 129.559 168.399 129.839 C 168.399 130.119 168.171 130.346 167.891 130.346 L 167.871 130.346 Z " fill="rgb(104,225,253)"/><path d=" M 98.079 137.563 L 80.824 137.563 C 80.544 137.563 80.317 137.336 80.317 137.055 C 80.317 136.775 80.544 136.548 80.824 136.548 L 98.079 136.548 C 98.36 136.548 98.587 136.775 98.587 137.055 C 98.587 137.336 98.36 137.563 98.079 137.563 Z " fill="rgb(255,255,255)"/><path d=" M 129.423 137.563 L 105.134 137.563 C 104.853 137.563 104.626 137.336 104.626 137.055 C 104.626 136.775 104.853 136.548 105.134 136.548 L 129.423 136.548 C 129.703 136.548 129.93 136.775 129.93 137.055 C 129.93 137.336 129.703 137.563 129.423 137.563 L 129.423 137.563 Z " fill="rgb(104,225,253)"/><path d=" M 143.45 137.563 L 133.523 137.563 C 133.243 137.563 133.016 137.336 133.016 137.055 C 133.016 136.775 133.243 136.548 133.523 136.548 L 143.45 136.548 C 143.73 136.548 143.957 136.775 143.957 137.055 C 143.957 137.336 143.73 137.563 143.45 137.563 Z " fill="rgb(104,225,253)"/><path d=" M 98.079 144.78 L 80.824 144.78 C 80.693 144.782 80.567 144.732 80.473 144.641 C 80.38 144.549 80.327 144.423 80.327 144.292 C 80.327 144.16 80.379 144.034 80.473 143.941 C 80.566 143.847 80.693 143.795 80.824 143.795 L 98.079 143.795 C 98.21 143.795 98.336 143.848 98.428 143.941 C 98.519 144.035 98.569 144.161 98.567 144.292 C 98.569 144.422 98.519 144.548 98.427 144.64 C 98.335 144.732 98.21 144.782 98.079 144.78 Z " fill="rgb(255,255,255)"/><path d=" M 138.141 144.78 L 102.616 144.78 C 102.347 144.78 102.129 144.561 102.129 144.292 C 102.129 144.022 102.346 143.801 102.616 143.795 L 138.141 143.795 C 138.273 143.795 138.4 143.847 138.493 143.941 C 138.586 144.034 138.639 144.16 138.639 144.292 C 138.639 144.423 138.586 144.549 138.493 144.641 C 138.399 144.732 138.272 144.782 138.141 144.78 L 138.141 144.78 Z " fill="rgb(104,225,253)"/><path d=" M 159.599 144.78 L 142.344 144.78 C 142.213 144.782 142.086 144.732 141.993 144.641 C 141.899 144.549 141.846 144.423 141.846 144.292 C 141.846 144.16 141.899 144.034 141.992 143.941 C 142.085 143.847 142.212 143.795 142.344 143.795 L 159.599 143.795 C 159.869 143.801 160.086 144.022 160.086 144.292 C 160.086 144.561 159.868 144.78 159.599 144.78 L 159.599 144.78 Z " fill="rgb(104,225,253)"/><path d=" M 85.91 151.996 L 76.775 151.996 C 76.494 151.996 76.267 151.769 76.267 151.489 C 76.267 151.208 76.494 150.981 76.775 150.981 L 85.91 150.981 C 86.19 150.981 86.417 151.208 86.417 151.489 C 86.417 151.769 86.19 151.996 85.91 151.996 Z " fill="rgb(255,255,255)"/><path d=" M 133.523 151.996 L 93.492 151.996 C 93.211 151.996 92.984 151.769 92.984 151.489 C 92.984 151.208 93.211 150.981 93.492 150.981 L 133.523 150.981 C 133.804 150.981 134.031 151.208 134.031 151.489 C 134.031 151.769 133.804 151.996 133.523 151.996 Z " fill="rgb(104,225,253)"/><path d=" M 94.019 159.223 L 76.764 159.223 C 76.484 159.223 76.257 158.996 76.257 158.716 C 76.257 158.435 76.484 158.208 76.764 158.208 L 94.019 158.208 C 94.3 158.208 94.527 158.435 94.527 158.716 C 94.527 158.996 94.3 159.223 94.019 159.223 Z " fill="rgb(255,255,255)"/><path d=" M 113.771 166.44 L 79.261 166.44 C 79.13 166.44 79.005 166.387 78.913 166.293 C 78.822 166.2 78.771 166.073 78.774 165.942 C 78.771 165.812 78.822 165.687 78.914 165.595 C 79.006 165.503 79.131 165.452 79.261 165.455 L 113.771 165.455 C 113.902 165.452 114.029 165.503 114.122 165.594 C 114.216 165.686 114.269 165.811 114.269 165.942 C 114.269 166.074 114.216 166.201 114.123 166.294 C 114.03 166.387 113.903 166.44 113.771 166.44 Z " fill="rgb(255,255,255)"/><path d=" M 143.45 166.44 L 119.486 166.44 C 119.355 166.44 119.229 166.387 119.138 166.293 C 119.046 166.2 118.996 166.073 118.999 165.942 C 118.996 165.812 119.046 165.687 119.138 165.595 C 119.23 165.503 119.356 165.452 119.486 165.455 L 143.45 165.455 C 143.581 165.452 143.707 165.503 143.801 165.594 C 143.895 165.686 143.947 165.811 143.947 165.942 C 143.947 166.217 143.725 166.44 143.45 166.44 L 143.45 166.44 Z " fill="rgb(104,225,253)"/><path d=" M 176.549 166.44 L 146.881 166.44 C 146.75 166.44 146.624 166.387 146.533 166.293 C 146.441 166.2 146.391 166.073 146.393 165.942 C 146.391 165.812 146.441 165.687 146.533 165.595 C 146.625 165.503 146.751 165.452 146.881 165.455 L 176.549 165.455 C 176.818 165.455 177.036 165.673 177.036 165.942 C 177.036 166.213 176.82 166.434 176.549 166.44 L 176.549 166.44 Z " fill="rgb(104,225,253)"/><path d=" M 131.047 173.656 L 80.804 173.656 C 80.672 173.656 80.546 173.604 80.452 173.511 C 80.359 173.417 80.307 173.291 80.307 173.159 C 80.307 173.028 80.359 172.903 80.453 172.811 C 80.547 172.719 80.673 172.669 80.804 172.672 L 131.047 172.672 C 131.178 172.669 131.304 172.719 131.398 172.811 C 131.491 172.903 131.544 173.028 131.544 173.159 C 131.544 173.291 131.492 173.417 131.398 173.511 C 131.305 173.604 131.179 173.656 131.047 173.656 L 131.047 173.656 Z " fill="rgb(255,255,255)"/><path d=" M 157.081 173.656 L 134.477 173.656 C 134.345 173.656 134.219 173.604 134.126 173.511 C 134.032 173.417 133.98 173.291 133.98 173.159 C 133.98 173.028 134.033 172.903 134.126 172.811 C 134.22 172.719 134.346 172.669 134.477 172.672 L 157.081 172.672 C 157.211 172.669 157.337 172.719 157.429 172.811 C 157.521 172.903 157.571 173.029 157.569 173.159 C 157.571 173.29 157.521 173.417 157.43 173.51 C 157.338 173.604 157.212 173.656 157.081 173.656 Z " fill="rgb(104,225,253)"/><path d=" M 228.121 173.656 L 160.908 173.656 C 160.637 173.651 160.421 173.43 160.421 173.159 C 160.421 172.89 160.639 172.672 160.908 172.672 L 228.121 172.672 C 228.252 172.669 228.379 172.719 228.472 172.811 C 228.566 172.903 228.619 173.028 228.619 173.159 C 228.619 173.291 228.566 173.417 228.473 173.511 C 228.38 173.604 228.253 173.656 228.121 173.656 L 228.121 173.656 Z " fill="rgb(104,225,253)"/><path d=" M 104.362 180.873 L 80.601 180.873 C 80.321 180.873 80.094 180.646 80.094 180.366 C 80.094 180.085 80.321 179.858 80.601 179.858 L 104.362 179.858 C 104.643 179.858 104.87 180.085 104.87 180.366 C 104.87 180.646 104.643 180.873 104.362 180.873 Z " fill="rgb(255,255,255)"/><path d=" M 126.591 180.873 L 109.092 180.873 C 108.812 180.873 108.585 180.646 108.585 180.366 C 108.585 180.085 108.812 179.858 109.092 179.858 L 126.591 179.858 C 126.871 179.858 127.098 180.085 127.098 180.366 C 127.098 180.646 126.871 180.873 126.591 180.873 Z " fill="rgb(104,225,253)"/><path d=" M 148.799 180.873 L 131.3 180.873 C 131.02 180.873 130.793 180.646 130.793 180.366 C 130.793 180.085 131.02 179.858 131.3 179.858 L 148.799 179.858 C 149.079 179.858 149.306 180.085 149.306 180.366 C 149.306 180.646 149.079 180.873 148.799 180.873 Z " fill="rgb(104,225,253)"/><path d=" M 122.612 188.09 L 80.601 188.09 C 80.47 188.092 80.344 188.042 80.25 187.951 C 80.156 187.859 80.104 187.733 80.104 187.602 C 80.104 187.471 80.156 187.344 80.249 187.251 C 80.343 187.157 80.469 187.105 80.601 187.105 L 122.612 187.105 C 122.744 187.105 122.87 187.157 122.964 187.251 C 123.057 187.344 123.109 187.471 123.109 187.602 C 123.109 187.733 123.057 187.859 122.963 187.951 C 122.87 188.042 122.743 188.092 122.612 188.09 L 122.612 188.09 Z " fill="rgb(255,255,255)"/><path d=" M 148.799 188.09 L 127.789 188.09 C 127.658 188.092 127.533 188.042 127.441 187.95 C 127.349 187.858 127.299 187.733 127.301 187.602 C 127.299 187.471 127.349 187.345 127.44 187.251 C 127.532 187.158 127.658 187.105 127.788 187.105 L 148.799 187.105 C 148.93 187.105 149.055 187.158 149.147 187.251 C 149.239 187.345 149.289 187.471 149.286 187.602 C 149.289 187.733 149.239 187.858 149.147 187.95 C 149.055 188.042 148.929 188.092 148.799 188.09 Z " fill="rgb(104,225,253)"/><path d=" M 185.948 188.09 L 153.955 188.09 C 153.825 188.092 153.7 188.042 153.608 187.95 C 153.516 187.858 153.465 187.733 153.468 187.602 C 153.465 187.471 153.515 187.345 153.607 187.251 C 153.699 187.158 153.824 187.105 153.955 187.105 L 185.948 187.105 C 186.08 187.105 186.206 187.157 186.3 187.251 C 186.393 187.344 186.445 187.471 186.445 187.602 C 186.445 187.733 186.393 187.859 186.299 187.951 C 186.206 188.042 186.079 188.092 185.948 188.09 L 185.948 188.09 Z " fill="rgb(104,225,253)"/><path d=" M 221.27 188.09 L 189.318 188.09 C 189.187 188.092 189.06 188.042 188.967 187.951 C 188.873 187.859 188.82 187.733 188.82 187.602 C 188.82 187.471 188.873 187.344 188.966 187.251 C 189.059 187.157 189.186 187.105 189.318 187.105 L 221.27 187.105 C 221.402 187.105 221.528 187.157 221.622 187.251 C 221.715 187.344 221.767 187.471 221.767 187.602 C 221.767 187.733 221.715 187.859 221.621 187.951 C 221.528 188.042 221.401 188.092 221.27 188.09 L 221.27 188.09 Z " fill="rgb(104,225,253)"/><path d=" M 116.289 195.306 L 91.228 195.306 C 91.097 195.309 90.971 195.259 90.877 195.167 C 90.784 195.076 90.731 194.95 90.731 194.819 C 90.731 194.687 90.783 194.561 90.877 194.467 C 90.97 194.374 91.096 194.322 91.228 194.322 L 116.289 194.322 C 116.42 194.322 116.545 194.374 116.637 194.468 C 116.728 194.562 116.778 194.688 116.776 194.819 C 116.779 194.949 116.728 195.075 116.636 195.167 C 116.544 195.259 116.419 195.309 116.289 195.306 L 116.289 195.306 Z " fill="rgb(255,255,255)"/><path d=" M 146.048 195.306 L 120.988 195.306 C 120.858 195.309 120.732 195.259 120.64 195.167 C 120.548 195.075 120.498 194.949 120.501 194.819 C 120.498 194.688 120.548 194.562 120.64 194.468 C 120.732 194.374 120.857 194.322 120.988 194.322 L 146.048 194.322 C 146.18 194.322 146.307 194.374 146.4 194.467 C 146.493 194.561 146.546 194.687 146.546 194.819 C 146.546 194.95 146.493 195.076 146.399 195.167 C 146.306 195.259 146.179 195.309 146.048 195.306 L 146.048 195.306 Z " fill="rgb(104,225,253)"/><path d=" M 176.021 195.306 L 150.961 195.306 C 150.83 195.309 150.703 195.259 150.61 195.167 C 150.516 195.076 150.464 194.95 150.464 194.819 C 150.464 194.687 150.516 194.561 150.609 194.467 C 150.703 194.374 150.829 194.322 150.961 194.322 L 176.021 194.322 C 176.152 194.322 176.278 194.374 176.369 194.468 C 176.461 194.562 176.511 194.688 176.508 194.819 C 176.511 194.949 176.461 195.075 176.369 195.167 C 176.277 195.259 176.151 195.309 176.021 195.306 L 176.021 195.306 Z " fill="rgb(104,225,253)"/><path d=" M 207.06 196.118 L 181.99 196.118 C 181.709 196.118 181.482 195.891 181.482 195.611 C 181.482 195.331 181.709 195.103 181.99 195.103 L 207.06 195.103 C 207.34 195.103 207.567 195.331 207.567 195.611 C 207.567 195.891 207.34 196.118 207.06 196.118 Z " fill="rgb(104,225,253)"/><path d=" M 112.229 202.523 L 94.974 202.523 C 94.843 202.526 94.718 202.475 94.626 202.383 C 94.534 202.291 94.484 202.166 94.486 202.036 C 94.484 201.905 94.534 201.778 94.625 201.685 C 94.717 201.591 94.843 201.538 94.974 201.538 L 112.229 201.538 C 112.36 201.538 112.487 201.591 112.58 201.684 C 112.674 201.777 112.726 201.904 112.726 202.036 C 112.726 202.167 112.673 202.292 112.58 202.384 C 112.486 202.476 112.36 202.526 112.229 202.523 L 112.229 202.523 Z " fill="rgb(255,255,255)"/><path d=" M 133.564 202.523 L 116.309 202.523 C 116.178 202.526 116.051 202.476 115.958 202.384 C 115.864 202.292 115.811 202.167 115.812 202.036 C 115.812 201.904 115.864 201.777 115.957 201.684 C 116.05 201.591 116.177 201.538 116.309 201.538 L 133.564 201.538 C 133.695 201.538 133.82 201.591 133.912 201.685 C 134.004 201.778 134.054 201.905 134.051 202.036 C 134.054 202.166 134.003 202.291 133.911 202.383 C 133.819 202.475 133.694 202.526 133.564 202.523 L 133.564 202.523 Z " fill="rgb(104,225,253)"/><path d=" M 173.453 203.254 L 173.453 203.254 L 137.786 202.523 C 137.655 202.523 137.53 202.47 137.438 202.377 C 137.346 202.283 137.296 202.157 137.299 202.026 C 137.296 201.892 137.349 201.763 137.446 201.67 C 137.542 201.578 137.673 201.53 137.807 201.538 L 173.474 202.269 C 173.754 202.269 173.981 202.496 173.981 202.777 C 173.981 203.057 173.754 203.284 173.474 203.284 L 173.453 203.254 Z " fill="rgb(104,225,253)"/><path d=" M 186.76 123.13 L 163.415 123.13 C 163.284 123.13 163.159 123.077 163.067 122.983 C 162.975 122.89 162.925 122.763 162.928 122.632 C 162.925 122.502 162.975 122.377 163.067 122.285 C 163.159 122.193 163.285 122.142 163.415 122.145 L 186.76 122.145 C 186.891 122.142 187.018 122.192 187.111 122.284 C 187.205 122.376 187.257 122.501 187.257 122.632 C 187.257 122.764 187.205 122.891 187.112 122.984 C 187.018 123.077 186.892 123.13 186.76 123.13 L 186.76 123.13 Z " fill="rgb(104,225,253)"/><path d=" M 204.015 123.201 C 199.448 123.201 196.057 123.201 195.895 123.099 C 195.634 123.026 195.482 122.756 195.555 122.495 C 195.628 122.235 195.898 122.082 196.159 122.155 C 197.052 122.267 212.46 122.206 222.65 122.155 L 222.65 122.155 C 222.781 122.153 222.908 122.203 223.001 122.294 C 223.095 122.386 223.148 122.511 223.148 122.642 C 223.148 122.774 223.095 122.901 223.002 122.994 C 222.909 123.087 222.782 123.14 222.65 123.14 C 217.21 123.16 209.699 123.201 204.015 123.201 Z " fill="rgb(104,225,253)"/><path d=" M 183.035 108.696 L 149.134 108.696 C 148.854 108.696 148.626 108.469 148.626 108.189 C 148.626 107.909 148.854 107.681 149.134 107.681 L 183.035 107.681 C 183.315 107.681 183.542 107.909 183.542 108.189 C 183.542 108.469 183.315 108.696 183.035 108.696 Z " fill="rgb(104,225,253)"/><path d=" M 223.584 108.696 L 189.805 108.696 C 189.525 108.696 189.297 108.469 189.297 108.189 C 189.297 107.909 189.525 107.681 189.805 107.681 L 223.544 107.681 C 223.824 107.681 224.051 107.909 224.051 108.189 C 224.051 108.469 223.824 108.696 223.544 108.696 L 223.584 108.696 Z " fill="rgb(104,225,253)"/><path d=" M 151.235 101.51 C 144.972 101.51 140.202 101.51 140.009 101.51 C 139.741 101.464 139.56 101.21 139.603 100.942 C 139.645 100.68 139.888 100.499 140.151 100.536 C 141.014 100.597 166.044 100.536 179.178 100.536 L 179.178 100.536 C 179.31 100.536 179.436 100.588 179.53 100.681 C 179.623 100.775 179.675 100.901 179.675 101.033 C 179.675 101.164 179.623 101.29 179.529 101.381 C 179.435 101.473 179.309 101.523 179.178 101.52 C 173.666 101.49 160.715 101.51 151.235 101.51 Z " fill="rgb(104,225,253)"/><path d=" M 188.323 101.5 C 188.138 101.496 187.972 101.385 187.897 101.216 C 187.794 100.955 187.909 100.659 188.161 100.536 C 188.557 100.343 196.443 100.323 211.587 100.536 C 211.855 100.546 212.069 100.764 212.074 101.033 C 212.074 101.164 212.021 101.29 211.928 101.381 C 211.834 101.473 211.708 101.523 211.577 101.52 L 211.577 101.52 C 202.756 101.429 189.348 101.348 188.516 101.52 C 188.451 101.532 188.384 101.525 188.323 101.5 L 188.323 101.5 Z " fill="rgb(255,255,255)"/><path d=" M 155.62 151.996 L 138.141 151.996 C 137.861 151.996 137.634 151.769 137.634 151.489 C 137.634 151.208 137.861 150.981 138.141 150.981 L 155.62 150.981 C 155.9 150.981 156.127 151.208 156.127 151.489 C 156.127 151.769 155.9 151.996 155.62 151.996 Z " fill="rgb(104,225,253)"/><path d=" M 115.517 159.223 L 102.657 159.223 C 102.377 159.223 102.15 158.996 102.15 158.716 C 102.15 158.435 102.377 158.208 102.657 158.208 L 115.517 158.208 C 115.797 158.208 116.025 158.435 116.025 158.716 C 116.025 158.996 115.797 159.223 115.517 159.223 Z " fill="rgb(104,225,253)"/><path d=" M 150.961 159.223 L 120.399 159.223 C 120.119 159.223 119.892 158.996 119.892 158.716 C 119.892 158.435 120.119 158.208 120.399 158.208 L 150.961 158.208 C 151.241 158.208 151.468 158.435 151.468 158.716 C 151.468 158.996 151.241 159.223 150.961 159.223 L 150.961 159.223 Z " fill="rgb(255,255,255)"/><path d=" M 216.286 159.223 L 157.081 159.223 C 156.801 159.223 156.574 158.996 156.574 158.716 C 156.574 158.435 156.801 158.208 157.081 158.208 L 216.286 158.208 C 216.567 158.208 216.794 158.435 216.794 158.716 C 216.794 158.996 216.567 159.223 216.286 159.223 L 216.286 159.223 Z " fill="rgb(104,225,253)"/><circle vector-effect="non-scaling-stroke" cx="57.855" cy="83.05745000000002" r="1.7254999999999967" fill="rgb(35,31,32)"/><circle vector-effect="non-scaling-stroke" cx="63.904399999999995" cy="83.05745000000002" r="1.7254999999999967" fill="rgb(255,255,255)"/><circle vector-effect="non-scaling-stroke" cx="69.9538" cy="83.05745000000002" r="1.7254999999999967" fill="rgb(255,255,255)"/><path d=" M 182.954 245.011 L 118.39 245.011 L 125.687 222.762 L 175.656 222.762 L 182.954 245.011 L 182.954 245.011 Z " fill="rgb(255,255,255)"/><path d=" M 182.954 245.518 L 118.39 245.518 C 118.226 245.524 118.07 245.449 117.972 245.317 C 117.875 245.185 117.849 245.014 117.902 244.859 L 125.2 222.61 C 125.267 222.397 125.465 222.253 125.687 222.255 L 175.656 222.255 C 175.879 222.253 176.076 222.397 176.143 222.61 L 183.441 244.859 C 183.495 245.014 183.468 245.185 183.371 245.317 C 183.274 245.449 183.118 245.524 182.954 245.518 L 182.954 245.518 Z  M 119.09 244.503 L 182.253 244.503 L 175.29 223.27 L 126.053 223.27 L 119.09 244.503 Z " fill="rgb(35,31,32)"/><path d="M 113.057 245.01 L 188.283 245.01 C 190.015 245.01 191.42 246.413 191.42 248.14 L 191.42 248.14 C 191.42 249.867 190.015 251.27 188.283 251.27 L 113.057 251.27 C 111.325 251.27 109.92 249.867 109.92 248.14 L 109.92 248.14 C 109.92 246.413 111.325 245.01 113.057 245.01 Z" style="stroke:none;fill:#FFFFFF;stroke-miterlimit:10;"/><path d=" M 188.293 251.791 L 113.061 251.791 C 111.048 251.791 109.417 250.16 109.417 248.147 C 109.417 246.135 111.048 244.503 113.061 244.503 L 188.293 244.503 C 190.305 244.503 191.936 246.135 191.936 248.147 C 191.936 250.16 190.305 251.791 188.293 251.791 Z  M 113.061 245.518 C 111.609 245.518 110.432 246.695 110.432 248.147 C 110.432 249.599 111.609 250.776 113.061 250.776 L 188.293 250.776 C 189.745 250.776 190.921 249.599 190.921 248.147 C 190.921 246.695 189.745 245.518 188.293 245.518 L 113.061 245.518 Z " fill="rgb(35,31,32)"/><path d=" M 120.328 239.114 C 121.343 238.566 177.27 228.355 177.27 228.355 L 175.433 222.762 L 125.464 222.762 L 120.328 239.114 Z " fill="rgb(35,31,32)"/><path d=" M 120.318 239.621 C 120.202 239.62 120.09 239.577 120.003 239.499 C 119.853 239.369 119.796 239.16 119.861 238.972 L 124.997 222.62 C 125.057 222.413 125.248 222.271 125.464 222.275 L 175.433 222.275 C 175.646 222.27 175.836 222.406 175.899 222.61 L 177.737 228.192 C 177.776 228.329 177.757 228.475 177.684 228.597 C 177.611 228.718 177.49 228.803 177.351 228.832 C 162.024 231.633 121.922 239.033 120.511 239.57 C 120.45 239.599 120.385 239.616 120.318 239.621 L 120.318 239.621 Z  M 125.86 223.259 L 121.089 238.434 C 127.809 236.911 166.947 229.745 176.651 227.969 L 175.108 223.259 L 125.86 223.259 Z " fill="rgb(35,31,32)"/><clipPath id="_clipPath_LLhQzV7MABtQkMuQ9FsZ8n3qghhwjLU6"><rect x="83.971" y="106.7" width="49.996" height="43.378" transform="matrix(0.947,-0.32,0.32,0.947,-35.384,41.67)" fill="rgb(255,255,255)"/></clipPath><g clip-path="url(#_clipPath_LLhQzV7MABtQkMuQ9FsZ8n3qghhwjLU6)"><g style="mix-blend-mode:color;" filter="url(#ffIllBMdxJsMJvLcaOBrHLkaZDsq3BHN)"><g><linearGradient id="_lgradient_59" x1="-0.16836" y1="0.9194" x2="0.762192" y2="-0.01116000000000017" gradientTransform="matrix(47.361,-16.015,13.895,41.093,78.34,115.85)" gradientUnits="userSpaceOnUse"><stop offset="10.8%" stop-opacity="1" style="stop-color:rgb(199,87,188)"/><stop offset="17.299999999999997%" stop-opacity="1" style="stop-color:rgb(205,92,169)"/><stop offset="49.2%" stop-opacity="1" style="stop-color:rgb(232,116,79)"/><stop offset="71.6%" stop-opacity="1" style="stop-color:rgb(248,131,22)"/><stop offset="82.3%" stop-opacity="1" style="stop-color:rgb(255,137,0)"/></linearGradient><path d=" M 102.119 107.81 L 85.677 137.547 L 92.236 156.943 L 109.002 128.276 L 125.702 99.835 L 102.119 107.81 Z " fill="url(#_lgradient_59)"/><linearGradient id="_lgradient_60" x1="0.31914399999999987" y1="1.3592341266048615" x2="0.7727119999999996" y2="1.1314413913728614" gradientTransform="matrix(47.361,-16.015,6.978,20.638,85.257,136.305)" gradientUnits="userSpaceOnUse"><stop offset="29.599999999999998%" stop-opacity="1" style="stop-color:rgb(0,175,255)"/><stop offset="69.39999999999999%" stop-opacity="1" style="stop-color:rgb(82,130,255)"/><stop offset="100%" stop-opacity="1" style="stop-color:rgb(148,93,255)"/></linearGradient><path d=" M 92.236 156.943 L 109.002 128.276 L 139.597 140.928 L 92.236 156.943 Z " fill="url(#_lgradient_60)"/><linearGradient id="_lgradient_61" x1="0" y1="0.5" x2="0.6706857221126434" y2="-0.2417416411084401" gradientTransform="matrix(23.779,-8.041,7.336,21.697,78.34,115.85)" gradientUnits="userSpaceOnUse"><stop offset="0%" stop-opacity="1" style="stop-color:rgb(13,168,255)"/><stop offset="100%" stop-opacity="1" style="stop-color:rgb(3,173,255)"/><stop offset="100%" stop-opacity="1" style="stop-color:rgb(84,129,255)"/></linearGradient><path d=" M 78.34 115.85 L 102.119 107.81 L 85.677 137.547 L 78.34 115.85 Z " fill="url(#_lgradient_61)"/></g></g><defs><filter id="ffIllBMdxJsMJvLcaOBrHLkaZDsq3BHN" x="-200%" y="-200%" width="400%" height="400%" filterUnits="objectBoundingBox" color-interpolation-filters="sRGB"><feGaussianBlur xmlns="http://www.w3.org/2000/svg" in="SourceGraphic" stdDeviation="2.146804531419514"/><feOffset xmlns="http://www.w3.org/2000/svg" dx="0" dy="0" result="pf_100_offsetBlur"/><feFlood xmlns="http://www.w3.org/2000/svg" flood-color="#FFB700" flood-opacity="0.72"/><feComposite xmlns="http://www.w3.org/2000/svg" in2="pf_100_offsetBlur" operator="in" result="pf_100_dropShadow"/><feBlend xmlns="http://www.w3.org/2000/svg" in="SourceGraphic" in2="pf_100_dropShadow" mode="normal"/></filter></defs></g><clipPath id="_clipPath_YMI6yNjgqqlbeBLAiUV1rk2CV99VgGXA"><path d="M 338.173 205.8 L 344.847 205.8 C 346.99 205.8 348.73 207.539 348.73 209.681 L 348.73 219.679 C 348.73 221.821 346.99 223.56 344.847 223.56 L 338.173 223.56 C 336.03 223.56 334.29 221.821 334.29 219.679 L 334.29 209.681 C 334.29 207.539 336.03 205.8 338.173 205.8 Z" style="stroke:none;fill:#FFFFFF;stroke-miterlimit:10;"/></clipPath><g clip-path="url(#_clipPath_YMI6yNjgqqlbeBLAiUV1rk2CV99VgGXA)"><g><path d=" M 346.349 215.22 C 346.373 217.903 348.702 218.796 348.728 218.807 C 348.708 218.87 348.356 220.079 347.501 221.329 C 346.762 222.409 345.995 223.485 344.787 223.507 C 343.6 223.529 343.218 222.803 341.861 222.803 C 340.505 222.803 340.08 223.485 338.957 223.529 C 337.791 223.573 336.903 222.361 336.158 221.285 C 334.635 219.084 333.472 215.065 335.034 212.353 C 335.81 211.006 337.197 210.153 338.702 210.131 C 339.847 210.109 340.928 210.901 341.628 210.901 C 342.328 210.901 343.641 209.948 345.022 210.088 C 345.6 210.112 347.223 210.322 348.265 211.847 C 348.181 211.899 346.328 212.977 346.349 215.22 Z  M 344.118 208.632 C 344.737 207.883 345.153 206.84 345.04 205.802 C 344.147 205.837 343.068 206.396 342.428 207.145 C 341.855 207.808 341.352 208.87 341.488 209.887 C 342.482 209.964 343.498 209.382 344.118 208.632 Z " fill="rgb(0,0,0)"/></g></g><clipPath id="_clipPath_OdmCJ2S2mq3S7rARM8LOEib3xDNBNnI6"><rect x="288.103" y="208.861" width="13.581" height="15.968" transform="matrix(1,0,0,1,0,0)" fill="rgb(255,255,255)"/></clipPath><g clip-path="url(#_clipPath_OdmCJ2S2mq3S7rARM8LOEib3xDNBNnI6)"><g><g><g><path d=" M 292.3 208.861 C 292.225 208.861 292.148 208.879 292.077 208.919 C 291.854 209.043 291.772 209.332 291.896 209.556 L 292.401 210.472 C 291.184 211.229 290.377 212.52 290.377 213.994 C 290.377 214.001 290.377 214.01 290.377 214.019 C 290.377 214.022 290.377 214.024 290.377 214.028 C 290.377 214.033 290.377 214.04 290.377 214.041 L 290.377 214.268 C 290.143 213.998 289.8 213.828 289.416 213.828 C 288.712 213.828 288.141 214.401 288.141 215.108 L 288.141 219.05 C 288.141 219.756 288.712 220.33 289.416 220.33 C 289.8 220.33 290.143 220.159 290.377 219.889 L 290.377 220.441 C 290.377 221.186 290.984 221.795 291.725 221.795 L 292.067 221.795 L 292.067 223.549 C 292.067 224.255 292.638 224.829 293.342 224.829 C 294.045 224.829 294.616 224.255 294.616 223.549 L 294.616 221.795 L 295.208 221.795 L 295.208 223.549 C 295.208 224.255 295.779 224.829 296.483 224.829 C 297.186 224.829 297.757 224.255 297.757 223.549 L 297.757 221.795 L 298.099 221.795 C 298.841 221.795 299.448 221.186 299.448 220.441 L 299.448 219.889 C 299.681 220.159 300.025 220.33 300.409 220.33 C 301.112 220.33 301.683 219.756 301.683 219.05 L 301.683 215.108 C 301.683 214.401 301.112 213.828 300.409 213.828 C 300.025 213.828 299.681 213.998 299.448 214.268 L 299.448 214.045 L 299.448 214.041 C 299.448 214.034 299.448 214.027 299.448 214.028 C 299.448 214.014 299.448 214.003 299.448 213.994 C 299.448 212.52 298.639 211.23 297.422 210.474 L 297.929 209.556 C 298.053 209.332 297.971 209.043 297.747 208.919 C 297.677 208.879 297.599 208.861 297.525 208.861 C 297.36 208.859 297.198 208.947 297.112 209.101 L 296.582 210.062 C 296.064 209.87 295.501 209.765 294.912 209.765 C 294.324 209.765 293.76 209.869 293.242 210.061 L 292.712 209.101 C 292.627 208.947 292.465 208.859 292.3 208.861 L 292.3 208.861 Z " fill="rgb(255,255,255)"/></g><g><g><path d=" M 289.416 214.185 C 288.891 214.185 288.473 214.602 288.473 215.127 L 288.473 219.053 C 288.473 219.578 288.891 219.996 289.416 219.996 C 289.941 219.996 290.358 219.578 290.358 219.053 L 290.358 215.127 C 290.358 214.602 289.941 214.185 289.416 214.185 L 289.416 214.185 Z  M 300.409 214.185 C 299.884 214.185 299.466 214.602 299.466 215.127 L 299.466 219.053 C 299.466 219.578 299.884 219.996 300.409 219.996 C 300.934 219.996 301.351 219.578 301.351 219.053 L 301.351 215.127 C 301.351 214.602 300.934 214.185 300.409 214.185 L 300.409 214.185 Z " fill="rgb(164,198,57)"/><path d=" M 293.342 218.665 C 292.817 218.665 292.399 219.083 292.399 219.608 L 292.399 223.534 C 292.399 224.059 292.817 224.476 293.342 224.476 C 293.867 224.476 294.284 224.059 294.284 223.534 L 294.284 219.608 C 294.284 219.083 293.867 218.665 293.342 218.665 L 293.342 218.665 Z  M 296.483 218.665 C 295.958 218.665 295.54 219.083 295.54 219.608 L 295.54 223.534 C 295.54 224.059 295.958 224.476 296.483 224.476 C 297.008 224.476 297.425 224.059 297.425 223.534 L 297.425 219.608 C 297.425 219.083 297.008 218.665 296.483 218.665 L 296.483 218.665 Z " fill="rgb(164,198,57)"/></g><path d=" M 292.303 209.238 C 292.28 209.238 292.259 209.244 292.239 209.255 C 292.172 209.293 292.15 209.37 292.187 209.437 L 292.851 210.637 C 291.574 211.302 290.711 212.565 290.709 214.014 L 299.116 214.014 C 299.114 212.565 298.251 211.302 296.973 210.637 L 297.637 209.437 C 297.675 209.37 297.653 209.293 297.585 209.255 C 297.565 209.244 297.544 209.238 297.522 209.238 C 297.474 209.238 297.429 209.262 297.404 209.307 L 296.731 210.52 C 296.181 210.276 295.564 210.139 294.912 210.139 C 294.261 210.139 293.644 210.276 293.094 210.52 L 292.421 209.307 C 292.395 209.262 292.35 209.238 292.303 209.238 L 292.303 209.238 Z  M 290.709 214.346 L 290.709 220.439 C 290.709 221.002 291.162 221.455 291.725 221.455 L 298.099 221.455 C 298.662 221.455 299.116 221.002 299.116 220.439 L 299.116 214.346 L 290.709 214.346 L 290.709 214.346 Z " fill="rgb(164,198,57)"/><path d=" M 292.972 211.774 C 292.78 211.774 292.621 211.933 292.621 212.125 C 292.621 212.317 292.78 212.476 292.972 212.476 C 293.164 212.476 293.323 212.317 293.323 212.125 C 293.323 211.933 293.164 211.774 292.972 211.774 L 292.972 211.774 Z  M 296.852 211.774 C 296.66 211.774 296.501 211.933 296.501 212.125 C 296.501 212.317 296.66 212.476 296.852 212.476 C 297.044 212.476 297.203 212.317 297.203 212.125 C 297.203 211.933 297.044 211.774 296.852 211.774 L 296.852 211.774 Z " fill="rgb(255,255,255)"/></g></g></g></g><clipPath id="_clipPath_MAoHyG1yv26HrmdyXgkEjKnZc5sk87ef"><rect x="199.967" y="111.343" width="42.466" height="59.335" transform="matrix(0.997,0.078,-0.078,0.997,11.737,-16.91)" fill="rgb(255,255,255)"/></clipPath><g clip-path="url(#_clipPath_MAoHyG1yv26HrmdyXgkEjKnZc5sk87ef)"><g><g><path d=" M 239.956 160.052 L 239.659 160.028 L 239.669 159.904 L 240.468 159.967 L 240.458 160.091 L 240.163 160.068 L 240.114 160.69 L 239.907 160.674 L 239.956 160.052 L 239.956 160.052 Z  M 241.546 160.209 L 241.541 160.209 L 241.201 160.776 L 241.066 160.765 L 240.821 160.152 L 240.817 160.152 L 240.771 160.742 L 240.575 160.726 L 240.634 159.98 L 240.922 160.002 L 241.151 160.552 L 241.462 160.045 L 241.749 160.068 L 241.69 160.814 L 241.499 160.799 L 241.546 160.209 L 241.546 160.209 Z " fill="rgb(231,111,0)"/><path d=" M 214.601 142.697 C 214.601 142.697 212.466 143.436 215.975 144.019 C 220.226 144.722 222.417 144.841 227.187 144.542 C 227.187 144.542 228.381 145.223 230.072 145.865 C 219.232 148.438 206.16 143.786 214.601 142.697 Z  M 213.659 138.153 C 213.659 138.153 211.243 139.258 214.756 139.811 C 219.3 140.525 222.908 140.838 229.227 140.426 C 229.227 140.426 230.039 141.152 231.37 141.618 C 218.366 143.421 204.331 139.715 213.659 138.153 Z " fill="rgb(83,130,161)"/><path d=" M 225.143 131.476 C 227.57 133.934 224.122 135.702 224.122 135.702 C 224.122 135.702 230.938 133.658 228.153 130.207 C 225.551 126.988 223.492 125.329 235.675 121.124 C 235.675 121.124 216.913 123.138 225.143 131.476 Z " fill="rgb(231,111,0)"/><path d=" M 237.925 147.837 C 237.925 147.837 239.378 148.902 236.112 149.381 C 229.9 150.289 210.569 149.191 205.346 147.017 C 203.469 146.236 207.151 145.646 208.303 145.552 C 209.503 145.452 210.178 145.541 210.178 145.541 C 208.124 144.239 196.151 146.678 203.98 148.263 C 225.33 152.584 243.368 150.171 237.925 147.837 Z  M 216.305 133.731 C 216.305 133.731 206.351 134.71 212.641 135.845 C 215.297 136.325 220.638 136.684 225.633 136.762 C 229.716 136.824 233.838 136.597 233.838 136.597 C 233.838 136.597 232.369 136.945 231.291 137.395 C 221.168 138.581 201.984 136.15 207.686 134.572 C 212.508 133.238 216.305 133.731 216.305 133.731 Z  M 233.332 142.509 C 243.776 139.351 239.39 135.182 236.079 135.437 C 235.268 135.499 234.902 135.579 234.902 135.579 C 234.902 135.579 235.227 135.253 235.807 135.146 C 242.411 133.946 246.855 141.085 233.113 142.693 C 233.113 142.693 233.278 142.6 233.332 142.509 Z " fill="rgb(83,130,161)"/><path d=" M 229.561 112.306 C 229.561 112.306 234.841 116.964 223.397 122.588 C 214.219 127.099 220.755 130.597 222.484 134.143 C 217.639 130.271 214.123 126.923 216.866 124.279 C 220.893 120.398 231.298 119.182 229.561 112.306 Z " fill="rgb(231,111,0)"/><path d=" M 215.876 151.92 C 225.566 153.152 240.559 153.6 241.184 150.171 C 241.184 150.171 240.401 151.428 232.961 151.89 C 224.567 152.411 214.339 151.468 208.326 150.239 C 208.326 150.238 209.508 151.109 215.876 151.92 Z " fill="rgb(83,130,161)"/><path d=" M 213.243 165.003 C 212.279 165.529 211.284 165.788 210.414 165.72 C 209.173 165.622 208.546 165.011 208.616 164.114 C 208.693 163.144 209.467 162.491 212.35 162.718 L 213.416 162.802 L 213.243 165.003 Z  M 215.606 167.348 L 216.129 160.707 C 216.262 159.01 215.062 157.789 211.956 157.545 C 210.143 157.402 208.528 157.613 207.203 157.941 L 207.483 159.146 C 208.522 158.946 209.858 158.788 211.149 158.89 C 212.939 159.03 213.666 159.632 213.578 160.751 L 213.512 161.59 L 212.619 161.52 C 208.271 161.178 206.211 162.292 206.061 164.194 C 205.932 165.836 207.151 166.871 209.584 167.063 C 211.148 167.186 212.354 166.792 213.501 166.168 L 213.62 167.192 L 215.606 167.348 L 215.606 167.348 Z  M 224.056 168.013 L 220.898 167.764 L 217.829 158.176 L 220.586 158.393 L 222.495 164.286 L 222.884 166.043 C 224.273 163.655 225.314 161.204 225.927 158.813 L 228.61 159.024 C 227.65 162.026 226.093 165.282 224.056 168.013 Z  M 236.338 166.82 C 235.372 167.345 234.374 167.605 233.505 167.536 C 232.266 167.439 231.637 166.827 231.708 165.93 C 231.784 164.96 232.56 164.307 235.442 164.534 L 236.511 164.618 L 236.338 166.82 Z  M 238.701 169.165 L 239.223 162.523 C 239.356 160.826 238.153 159.605 235.05 159.361 C 233.236 159.218 231.62 159.43 230.296 159.757 L 230.576 160.962 C 231.615 160.762 232.953 160.605 234.244 160.706 C 236.032 160.847 236.76 161.448 236.672 162.567 L 236.606 163.407 L 235.712 163.336 C 231.363 162.994 229.303 164.108 229.153 166.01 C 229.024 167.653 230.242 168.687 232.675 168.879 C 234.24 169.002 235.445 168.609 236.595 167.985 L 236.714 169.009 L 238.701 169.165 L 238.701 169.165 Z  M 202.973 167.942 C 202.189 168.677 200.974 169.211 199.67 169.465 L 198.507 168.262 C 199.508 167.964 200.388 167.425 200.82 166.892 C 201.194 166.417 201.383 165.783 201.505 164.239 L 202.339 153.633 L 205.029 153.845 L 204.206 164.305 C 204.044 166.369 203.758 167.186 202.973 167.942 Z " fill="rgb(231,111,0)"/></g></g></g></g></svg>