<?xml version="1.0" encoding="UTF-8" standalone="no"?><!-- Generator: Gravit.io --><svg xmlns="http://www.w3.org/2000/svg" xmlns:xlink="http://www.w3.org/1999/xlink" style="isolation:isolate" viewBox="0 0 800 600" width="800pt" height="600pt"><defs><clipPath id="_clipPath_vvUsFPoK3wiD1ueGoU8kmwrixPHm6CqA"><rect width="800" height="600"/></clipPath></defs><g clip-path="url(#_clipPath_vvUsFPoK3wiD1ueGoU8kmwrixPHm6CqA)"><g><g><path d=" M 111.86 449.42 C 111.86 449.42 89.76 437.79 82.1 420.86 C 74.44 403.93 81.92 380.21 79.62 372.25 C 93.76 387.2 102.45 391.54 108.63 408.79 C 114.81 426.03 113.02 444.57 111.86 449.42 Z " fill="rgb(0,117,159)"/><path d=" M 135.15 477.64 C 135.15 477.64 112.4 495.67 88.46 478.26 C 71.72 464.16 60.58 444.92 60.58 444.92 C 60.58 444.92 87.49 448.55 100.95 451.72 C 114.41 454.9 130.32 470.47 135.15 477.64 Z " fill="rgb(0,117,159)"/><path d=" M 704.07 449.42 C 704.07 449.42 726.17 437.79 733.83 420.86 C 741.49 403.93 734.01 380.21 736.31 372.25 C 722.17 387.2 713.48 391.54 707.3 408.79 C 701.12 426.03 702.92 444.57 704.07 449.42 Z " fill="rgb(0,117,159)"/><path d=" M 680.78 477.64 C 680.78 477.64 703.53 495.67 727.47 478.26 C 744.21 464.16 755.35 444.92 755.35 444.92 C 755.35 444.92 728.44 448.55 714.98 451.72 C 701.52 454.9 685.61 470.47 680.78 477.64 Z " fill="rgb(0,117,159)"/><g><g><path d=" M 220.07 544.46 C 220.07 544.46 197.6 563.86 139.6 549.22 C 97.33 538.55 62.5 496.81 62.5 496.81 C 62.5 496.81 145.48 465.39 220.07 544.46 Z " fill="rgb(0,117,159)"/><path d=" M 218.19 547.07 C 218.19 547.07 173.51 541.87 130.41 462.14 C 98.99 404.03 109.88 322.38 109.88 322.38 C 109.88 322.38 229.99 382.79 218.19 547.07 Z " fill="rgb(0,117,159)"/><path d=" M 216.48 545.43 C 216.48 545.43 180.94 517.85 185.32 427.33 C 188.51 361.35 240.09 297.12 240.09 297.12 C 240.09 297.12 311.6 410.97 216.48 545.43 Z " fill="rgb(116,26,172)"/></g><g><path d=" M 592.61 541.09 C 592.61 541.09 614.8 560.25 672.08 545.79 C 713.83 535.25 748.22 494.04 748.22 494.04 C 748.22 494.04 666.28 463 592.61 541.09 Z " fill="rgb(0,117,159)"/><path d=" M 595.87 547.07 C 595.87 547.07 640.55 541.87 683.65 462.14 C 715.07 404.03 704.18 322.38 704.18 322.38 C 704.18 322.38 584.07 382.79 595.87 547.07 Z " fill="rgb(0,117,159)"/><path d=" M 597.58 545.43 C 597.58 545.43 633.12 517.85 628.74 427.33 C 625.54 361.35 573.97 297.12 573.97 297.12 C 573.97 297.12 502.46 410.97 597.58 545.43 Z " fill="rgb(116,26,172)"/></g><g><g><linearGradient id="_lgradient_62" x1="0.4999943592806422" y1="-0.010636655229001897" x2="0.7904140951622536" y2="1.250559450992093" gradientTransform="matrix(602.76,0,0,536.24,108.57,10.4)" gradientUnits="userSpaceOnUse"><stop offset="0%" stop-opacity="1" style="stop-color:rgb(84,81,193)"/><stop offset="100%" stop-opacity="1" style="stop-color:rgb(73,220,177)"/></linearGradient><path d=" M 711.33 311.78 C 711.33 145.33 576.4 10.4 409.95 10.4 C 243.5 10.4 108.57 145.33 108.57 311.78 C 108.57 406.73 152.49 491.4 221.11 546.64 L 598.8 546.64 C 667.4 491.4 711.33 406.73 711.33 311.78 Z " fill="url(#_lgradient_62)"/></g></g><g><g><path d=" M 375.43 103.15 C 375.43 103.81 374.9 104.34 374.24 104.34 C 373.58 104.34 373.05 103.81 373.05 103.15 C 373.05 102.49 373.58 101.96 374.24 101.96 C 374.9 101.96 375.43 102.5 375.43 103.15 Z " fill="rgb(255,255,255)"/><path d=" M 460.43 176.61 C 460.43 177.27 459.9 177.8 459.24 177.8 C 458.58 177.8 458.05 177.27 458.05 176.61 C 458.05 175.95 458.58 175.42 459.24 175.42 C 459.9 175.42 460.43 175.95 460.43 176.61 Z " fill="rgb(255,255,255)"/><path d=" M 318.86 194.89 C 318.86 195.55 318.33 196.08 317.67 196.08 C 317.01 196.08 316.48 195.55 316.48 194.89 C 316.48 194.23 317.01 193.7 317.67 193.7 C 318.33 193.7 318.86 194.23 318.86 194.89 Z " fill="rgb(255,255,255)"/><path d=" M 228.89 180.52 C 228.89 181.18 228.36 181.71 227.7 181.71 C 227.04 181.71 226.51 181.18 226.51 180.52 C 226.51 179.86 227.04 179.33 227.7 179.33 C 228.35 179.33 228.89 179.86 228.89 180.52 Z " fill="rgb(255,255,255)"/><path d=" M 577.48 252.89 C 577.48 253.55 576.95 254.08 576.29 254.08 C 575.63 254.08 575.1 253.55 575.1 252.89 C 575.1 252.23 575.63 251.7 576.29 251.7 C 576.95 251.7 577.48 252.23 577.48 252.89 Z " fill="rgb(255,255,255)"/><path d=" M 581.38 173.68 L 582.64 176.24 L 585.47 176.65 L 583.42 178.65 L 583.91 181.47 L 581.38 180.14 L 578.84 181.47 L 579.33 178.65 L 577.28 176.65 L 580.11 176.24 L 581.38 173.68 Z " fill="rgb(97,159,255)"/><path d=" M 288.15 69.53 L 289.73 72.74 L 293.27 73.25 L 290.71 75.75 L 291.31 79.27 L 288.15 77.61 L 284.98 79.27 L 285.59 75.75 L 283.03 73.25 L 286.57 72.74 L 288.15 69.53 Z " fill="rgb(144,201,255)"/><path d=" M 642.65 226.45 L 644.23 229.65 L 647.77 230.17 L 645.21 232.66 L 645.82 236.19 L 642.65 234.52 L 639.49 236.19 L 640.09 232.66 L 637.53 230.17 L 641.07 229.65 L 642.65 226.45 Z " fill="rgb(144,201,255)"/><circle vector-effect="non-scaling-stroke" cx="175.85" cy="216.92" r="4.189999999999998" fill="rgb(11,106,195)"/></g><linearGradient id="_lgradient_63" x1="0.6263152097632059" y1="-0.29788626144442487" x2="0.24249688848272855" y2="0.6856776808051671" gradientTransform="matrix(83.373,0,0,83.37,481.782,56.835)" gradientUnits="userSpaceOnUse"><stop offset="0%" stop-opacity="1" style="stop-color:rgb(11,190,255)"/><stop offset="100%" stop-opacity="1" style="stop-color:rgb(3,255,179)"/></linearGradient><path d=" M 493.91 127.92 C 510.15 144.24 536.55 144.31 552.87 128.07 C 569.19 111.83 569.26 85.44 553.02 69.12 C 536.78 52.8 510.39 52.73 494.06 68.97 C 477.75 85.2 477.68 111.59 493.91 127.92 Z " fill="url(#_lgradient_63)"/></g><g><linearGradient id="_lgradient_64" x1="0.2640087075707492" y1="1.3540482715145816" x2="0.7811372248649522" y2="0.3694711599673951" gradientTransform="matrix(248.06,0,0,183.599,384.51,384.78)" gradientUnits="userSpaceOnUse"><stop offset="0%" stop-opacity="1" style="stop-color:rgb(2,3,89)"/><stop offset="100%" stop-opacity="1" style="stop-color:rgb(0,117,159)"/></linearGradient><path d=" M 514.94 549.99 C 514.94 549.99 484.202 569.71 456.031 568.308 C 452.106 568.113 448.22 567.61 444.37 566.8 C 410.97 559.77 384.51 542.34 384.51 542.34 C 384.51 542.34 411.49 521.13 432.7 518.18 C 453.91 515.23 479.16 531.44 478.56 529.62 C 477.96 527.8 446.67 506.73 438.26 488.53 C 429.85 470.33 426.25 431.92 426.25 431.92 C 426.25 431.92 459.39 442.71 471.45 456.08 C 483.51 469.45 500.59 501.49 500.59 501.49 C 500.59 501.49 486.61 473.12 489.87 444.3 C 493.13 415.48 516.55 384.78 516.55 384.78 C 516.55 384.78 538.79 411.39 540.11 444.58 C 541.44 477.78 526.87 505.1 526.87 505.1 C 526.87 505.1 549.04 472.96 566.4 463.46 C 583.76 453.96 614.98 460.86 614.98 460.86 C 614.98 460.86 599.2 499.2 580.86 511.6 C 562.52 524.01 541.27 528.55 541.27 528.55 C 541.27 528.55 569.45 519.07 589.9 524.35 C 610.35 529.64 632.57 547.65 632.57 547.65 C 632.57 547.65 595.19 566.16 566.14 562.41 C 537.07 558.67 514.94 549.99 514.94 549.99 Z " fill="url(#_lgradient_64)" fill-opacity="0.66"/><linearGradient id="_lgradient_65" x1="0.4897960728323838" y1="0.7068319623431023" x2="0.47197230289017966" y2="0.7996064166783827" gradientTransform="matrix(8.65,0,0,2.39,541.26,526.16)" gradientUnits="userSpaceOnUse"><stop offset="7.430000000000001%" stop-opacity="1" style="stop-color:rgb(206,194,40)"/><stop offset="57.99999999999999%" stop-opacity="1" style="stop-color:rgb(178,174,24)"/></linearGradient><path d=" M 549.91 526.16 C 544.67 527.42 541.26 528.55 541.26 528.55 C 541.26 528.55 544.68 527.82 549.91 526.16 Z " fill="url(#_lgradient_65)"/><linearGradient id="_lgradient_66" x1="0.39346809525801874" y1="0.5545579021702087" x2="0.5728207010474791" y2="0.4418667644827238" gradientTransform="matrix(71.7,0,0,88.01,439.86,451.46)" gradientUnits="userSpaceOnUse"><stop offset="0%" stop-opacity="1" style="stop-color:rgb(119,0,187)"/><stop offset="100%" stop-opacity="1" style="stop-color:rgb(0,0,139)"/><stop offset="100%" stop-opacity="1" style="stop-color:rgb(0,0,0)"/></linearGradient><path d=" M 439.86 451.46 C 439.86 451.46 468.17 515.32 511.56 539.47 C 503.75 531.17 486.17 518.44 471.45 497.4 C 456.72 476.36 439.86 451.46 439.86 451.46 Z " fill="url(#_lgradient_66)"/><linearGradient id="_lgradient_67" x1="0.14323670451286397" y1="3.8833632595133594" x2="0.8567251899620416" y2="3.4350629474087615" gradientTransform="matrix(118.55,0,0,6.961,393.15,541.61)" gradientUnits="userSpaceOnUse"><stop offset="0%" stop-opacity="1" style="stop-color:rgb(119,0,187)"/><stop offset="100%" stop-opacity="1" style="stop-color:rgb(0,0,139)"/><stop offset="100%" stop-opacity="1" style="stop-color:rgb(0,0,0)"/></linearGradient><path d=" M 511.7 542.53 C 511.7 542.53 447.64 546.37 421.48 543.9 C 402.23 542.55 393.15 541.61 393.15 541.61 C 393.15 541.61 409.39 547.4 450.27 548.46 C 491.14 549.53 511.7 542.53 511.7 542.53 Z " fill="url(#_lgradient_67)"/></g><g><linearGradient id="_lgradient_68" x1="0.5658956282420888" y1="0.5359567482394283" x2="0.6731550259366017" y2="0.5844488231673857" gradientTransform="matrix(6.94,0,0,5.68,257.07,469.3)" gradientUnits="userSpaceOnUse"><stop offset="7.430000000000001%" stop-opacity="1" style="stop-color:rgb(206,194,40)"/><stop offset="57.99999999999999%" stop-opacity="1" style="stop-color:rgb(178,174,24)"/></linearGradient><path d=" M 257.07 474.98 C 261.13 471.43 264.01 469.3 264.01 469.3 C 264.01 469.3 261.44 471.66 257.07 474.98 Z " fill="url(#_lgradient_68)"/></g><g><g opacity="0.3"><path d=" M 315.37 383.98 C 315.37 383.98 341.44 412.46 347.27 440.87 C 353.1 469.28 341.72 498.79 341.72 498.79 C 341.72 498.79 355.86 465.34 366.67 450.95 C 377.48 436.55 409.53 422.83 409.53 422.83 C 409.53 422.83 409.39 461.41 402.64 480.29 C 395.9 499.17 366.62 522.97 366.19 524.83 C 365.76 526.7 389.45 508.29 410.84 509.33 C 432.23 510.36 461 529.07 461 529.07 C 461 529.07 436.21 548.8 403.57 558.8 C 370.93 568.8 331.78 548.39 331.78 548.39 C 331.78 548.39 331.41 548.57 330.73 548.9 C 334.04 476.46 315.37 383.98 315.37 383.98 Z " fill="rgb(0,117,159)"/></g><linearGradient id="_lgradient_69" x1="0.515765012471654" y1="0.7975751366458894" x2="0.5413328356009117" y2="0.8866272851719942" gradientTransform="matrix(8.82,0,0,1.61,294.81,527.79)" gradientUnits="userSpaceOnUse"><stop offset="7.430000000000001%" stop-opacity="1" style="stop-color:rgb(206,194,40)"/><stop offset="57.99999999999999%" stop-opacity="1" style="stop-color:rgb(178,174,24)"/></linearGradient><path d=" M 294.81 527.79 C 300.14 528.58 303.63 529.4 303.63 529.4 C 303.63 529.4 300.17 528.97 294.81 527.79 Z " fill="url(#_lgradient_69)"/><linearGradient id="_lgradient_70" x1="0.6265943043136" y1="0.5436019011479587" x2="0.4154813060054046" y2="0.43605511110072065" gradientTransform="matrix(63.52,0,0,94.08,334.2,443.52)" gradientUnits="userSpaceOnUse"><stop offset="0%" stop-opacity="1" style="stop-color:rgb(119,0,187)"/><stop offset="100%" stop-opacity="1" style="stop-color:rgb(0,0,139)"/><stop offset="100%" stop-opacity="1" style="stop-color:rgb(0,0,0)"/></linearGradient><path d=" M 397.72 443.52 C 397.72 443.52 375.25 509.66 334.2 537.6 C 341.23 528.64 357.6 514.38 370.38 492.11 C 383.16 469.83 397.72 443.52 397.72 443.52 Z " fill="url(#_lgradient_70)"/><linearGradient id="_lgradient_71" x1="0.8771895195355528" y1="2.0391033088099917" x2="0.12277100694974097" y2="1.6547816894354688" gradientTransform="matrix(117.99,0,0,13.951,334.34,529.12)" gradientUnits="userSpaceOnUse"><stop offset="0%" stop-opacity="1" style="stop-color:rgb(119,0,187)"/><stop offset="100%" stop-opacity="1" style="stop-color:rgb(0,0,139)"/><stop offset="100%" stop-opacity="1" style="stop-color:rgb(0,0,0)"/></linearGradient><path d=" M 334.34 540.66 C 334.34 540.66 398.49 538.74 424.32 533.94 C 443.37 530.87 452.33 529.12 452.33 529.12 C 452.33 529.12 436.68 536.34 396.06 541.07 C 355.44 545.8 334.34 540.66 334.34 540.66 Z " fill="url(#_lgradient_71)"/><linearGradient id="_lgradient_72" x1="1.043129911073648" y1="0.8802051252049479" x2="-0.03675439089664012" y2="0.3300822467938215" gradientTransform="matrix(94.91,0,0,67.09,233.47,472.12)" gradientUnits="userSpaceOnUse"><stop offset="0%" stop-opacity="1" style="stop-color:rgb(119,0,187)"/><stop offset="100%" stop-opacity="1" style="stop-color:rgb(0,0,139)"/><stop offset="100%" stop-opacity="1" style="stop-color:rgb(0,0,0)"/></linearGradient><path d=" M 328.38 539.21 C 328.38 539.21 304.17 514.09 281.65 497.65 C 259.14 481.2 233.47 472.12 233.47 472.12 C 233.47 472.12 267.18 492.31 279.82 501.39 C 292.45 510.47 328.38 539.21 328.38 539.21 Z " fill="url(#_lgradient_72)"/></g></g></g><g><linearGradient id="_lgradient_73" x1="0.5904712529678715" y1="0.9900791869004446" x2="0.2850748493985128" y2="-0.26544206027538" gradientTransform="matrix(93.164,0,0,99.162,366.09,230.288)" gradientUnits="userSpaceOnUse"><stop offset="0%" stop-opacity="1" style="stop-color:rgb(255,255,255)"/><stop offset="12.25%" stop-opacity="1" style="stop-color:rgb(251,253,255)"/><stop offset="24.759999999999998%" stop-opacity="1" style="stop-color:rgb(239,245,255)"/><stop offset="37.4%" stop-opacity="1" style="stop-color:rgb(218,233,255)"/><stop offset="50.129999999999995%" stop-opacity="1" style="stop-color:rgb(189,217,255)"/><stop offset="62.949999999999996%" stop-opacity="1" style="stop-color:rgb(152,195,255)"/><stop offset="75.82%" stop-opacity="1" style="stop-color:rgb(107,169,255)"/><stop offset="88.49000000000001%" stop-opacity="1" style="stop-color:rgb(55,138,255)"/><stop offset="100%" stop-opacity="1" style="stop-color:rgb(0,106,255)"/></linearGradient><path d=" M 399.61 238.71 L 366.09 296.54 C 366.09 296.54 407.16 332.58 414.7 329.23 C 422.24 325.88 459.12 311.63 459.12 311.63 C 459.12 311.63 459.96 290.68 457.44 283.97 C 454.93 277.27 423.92 228.66 421.4 230.33 C 418.88 232.01 399.61 238.71 399.61 238.71 Z " fill="url(#_lgradient_73)"/><mask id="_mask_pdPazz6lccv7n1bWml5Hj5pizI6buwyl" x="-200%" y="-200%" width="400%" height="400%"><rect x="-200%" y="-200%" width="400%" height="400%" style="fill:white;"/><path d=" M 270.8 499.03 C 272.48 500.15 285.61 518.03 303.77 530.6 C 321.93 543.17 346.51 555.46 346.51 555.46 L 483.4 557.69 C 483.4 557.69 514.13 544.56 533.13 528.36 C 552.13 512.16 556.32 499.86 556.32 499.86 L 442.9 508.52 L 441.78 507.4 L 384.79 507.96" fill="black" stroke="none"/></mask><path d=" M 270.8 499.03 C 272.48 500.15 285.61 518.03 303.77 530.6 C 321.93 543.17 346.51 555.46 346.51 555.46 L 483.4 557.69 C 483.4 557.69 514.13 544.56 533.13 528.36 C 552.13 512.16 556.32 499.86 556.32 499.86 L 442.9 508.52 L 441.78 507.4 L 384.79 507.96" fill="rgb(0,0,0)"/><path d=" M 270.8 499.03 C 272.48 500.15 285.61 518.03 303.77 530.6 C 321.93 543.17 346.51 555.46 346.51 555.46 L 483.4 557.69 C 483.4 557.69 514.13 544.56 533.13 528.36 C 552.13 512.16 556.32 499.86 556.32 499.86 L 442.9 508.52 L 441.78 507.4 L 384.79 507.96" fill="rgb(0,0,0)" mask="url(#_mask_pdPazz6lccv7n1bWml5Hj5pizI6buwyl)" vector-effect="non-scaling-stroke" stroke-width="4" stroke="rgb(35,31,32)" stroke-linejoin="miter" stroke-linecap="butt" stroke-miterlimit="10"/><linearGradient id="_lgradient_74" x1="0.5000032659501255" y1="1.0998028103414426" x2="0.5000032659501256" y2="-0.17814774910226405" gradientTransform="matrix(78.263,0,0,98.907,374.45,155.303)" gradientUnits="userSpaceOnUse"><stop offset="0%" stop-opacity="1" style="stop-color:rgb(255,255,255)"/><stop offset="12.25%" stop-opacity="1" style="stop-color:rgb(251,253,255)"/><stop offset="24.759999999999998%" stop-opacity="1" style="stop-color:rgb(239,245,255)"/><stop offset="37.4%" stop-opacity="1" style="stop-color:rgb(218,233,255)"/><stop offset="50.129999999999995%" stop-opacity="1" style="stop-color:rgb(189,217,255)"/><stop offset="62.949999999999996%" stop-opacity="1" style="stop-color:rgb(152,195,255)"/><stop offset="75.82%" stop-opacity="1" style="stop-color:rgb(107,169,255)"/><stop offset="88.49000000000001%" stop-opacity="1" style="stop-color:rgb(55,138,255)"/><stop offset="100%" stop-opacity="1" style="stop-color:rgb(0,106,255)"/></linearGradient><path d=" M 374.45 200.57 C 374.45 200.57 377.99 225.53 387.11 236.52 C 396.23 247.51 405.55 254.21 412.63 254.21 C 419.71 254.21 433.86 245.83 440.19 233.54 C 446.52 221.25 449.32 200.95 449.32 200.95 C 449.32 200.95 464.03 165.38 432.19 161.47 C 400.34 157.56 382.46 151.41 380.04 158.68 C 377.62 165.93 374.45 200.57 374.45 200.57 Z " fill="url(#_lgradient_74)"/><path d=" M 434.05 170.58 C 434.36 170.08 449.14 194.05 447.46 207.27 C 445.78 220.49 441.13 233.53 437.96 237.63 C 434.79 241.73 426.23 248.8 426.23 248.8 C 426.23 248.8 425.48 267.61 432.75 277.3 C 440.02 286.99 453.61 293.13 459.76 293.69 C 465.91 294.25 471.49 294.99 470.93 294.99 C 470.37 294.99 462.18 269.66 465.34 251.78 C 468.51 233.9 464.6 183.43 457.7 164.62 C 450.81 145.81 446.34 144.32 446.34 144.32 C 446.34 144.32 427.53 126.63 389.35 139.11 C 367.31 146.31 362.34 171.14 362.53 198.15 C 362.72 225.16 365.51 246.76 358.06 267.81 C 350.61 288.86 352.1 295.19 352.1 295.19 C 352.1 295.19 380.41 294.63 388.79 286.06 C 397.17 277.49 399.22 271.35 399.78 264.46 C 400.34 257.57 400.9 249.75 400.9 249.75 C 400.9 249.75 386.74 241.74 381.53 226.28 C 376.32 210.82 375.94 209.52 375.94 209.52 C 375.94 209.52 386.74 204.49 399.59 192.01 C 412.44 179.53 413.74 176.92 413.74 176.92 L 404.99 190.7 C 404.99 190.7 421.94 189.77 434.05 170.58 Z " fill="rgb(0,0,0)"/><linearGradient id="_lgradient_75" x1="0.6169802052325482" y1="0.060472139757935306" x2="0.5376406724668596" y2="0.8340350987689438" gradientTransform="matrix(61.506,0,0,175.16,305.124,293.97)" gradientUnits="userSpaceOnUse"><stop offset="0%" stop-opacity="1" style="stop-color:rgb(255,255,255)"/><stop offset="12.25%" stop-opacity="1" style="stop-color:rgb(251,253,255)"/><stop offset="24.759999999999998%" stop-opacity="1" style="stop-color:rgb(239,245,255)"/><stop offset="37.4%" stop-opacity="1" style="stop-color:rgb(218,233,255)"/><stop offset="50.129999999999995%" stop-opacity="1" style="stop-color:rgb(189,217,255)"/><stop offset="62.949999999999996%" stop-opacity="1" style="stop-color:rgb(152,195,255)"/><stop offset="75.82%" stop-opacity="1" style="stop-color:rgb(107,169,255)"/><stop offset="88.49000000000001%" stop-opacity="1" style="stop-color:rgb(55,138,255)"/><stop offset="100%" stop-opacity="1" style="stop-color:rgb(0,106,255)"/></linearGradient><path d=" M 366.63 293.97 C 366.63 293.97 345.4 293.97 340.09 301.23 C 334.78 308.49 303.77 395.38 305.17 400.96 C 306.57 406.54 354.34 469.13 354.34 469.13 C 354.34 469.13 355.74 435.33 355.46 433.65 C 355.18 431.97 329.76 394.26 329.76 393.42 C 329.76 392.58 354.07 348.44 354.07 348.44 L 366.63 293.97 Z " fill="url(#_lgradient_75)"/><linearGradient id="_lgradient_76" x1="-0.09427541726628252" y1="0.09904087691253682" x2="0.23064905173303918" y2="1.013960179185737" gradientTransform="matrix(61.506,0,0,175.16,459.66,293.97)" gradientUnits="userSpaceOnUse"><stop offset="0%" stop-opacity="1" style="stop-color:rgb(255,255,255)"/><stop offset="12.25%" stop-opacity="1" style="stop-color:rgb(251,253,255)"/><stop offset="24.759999999999998%" stop-opacity="1" style="stop-color:rgb(239,245,255)"/><stop offset="37.4%" stop-opacity="1" style="stop-color:rgb(218,233,255)"/><stop offset="50.129999999999995%" stop-opacity="1" style="stop-color:rgb(189,217,255)"/><stop offset="62.949999999999996%" stop-opacity="1" style="stop-color:rgb(152,195,255)"/><stop offset="75.82%" stop-opacity="1" style="stop-color:rgb(107,169,255)"/><stop offset="88.49000000000001%" stop-opacity="1" style="stop-color:rgb(55,138,255)"/><stop offset="100%" stop-opacity="1" style="stop-color:rgb(0,106,255)"/></linearGradient><path d=" M 459.66 293.97 C 459.66 293.97 480.89 293.97 486.2 301.23 C 491.51 308.49 522.52 395.38 521.12 400.96 C 519.72 406.54 471.95 469.13 471.95 469.13 C 471.95 469.13 470.55 435.33 470.83 433.65 C 471.11 431.97 496.53 394.26 496.53 393.42 C 496.53 392.58 472.22 348.44 472.22 348.44 L 459.66 293.97 Z " fill="url(#_lgradient_76)"/><linearGradient id="_lgradient_77" x1="0.5000223371173353" y1="0.13072296715094356" x2="0.5000223371173352" y2="0.8261378235986867" gradientTransform="matrix(118.716,0,0,207.349,353.538,292.85)" gradientUnits="userSpaceOnUse"><stop offset="0%" stop-opacity="1" style="stop-color:rgb(29,172,255)"/><stop offset="11.42%" stop-opacity="1" style="stop-color:rgb(27,159,239)"/><stop offset="33.71%" stop-opacity="1" style="stop-color:rgb(21,125,198)"/><stop offset="64.67%" stop-opacity="1" style="stop-color:rgb(12,70,130)"/><stop offset="100%" stop-opacity="1" style="stop-color:rgb(0,0,46)"/></linearGradient><path d=" M 457.14 292.85 C 457.14 292.85 444.57 311.01 415.51 312.41 C 386.46 313.81 371.37 293.41 371.37 293.41 L 366.62 293.97 C 366.62 293.97 354.89 319.11 353.77 336.15 C 352.65 353.19 355.73 361.01 359.92 369.12 C 364.11 377.23 367.74 378.06 367.74 378.06 L 369.42 492.6 C 369.42 492.6 447.08 500.98 446.81 500.14 C 446.53 499.3 462.45 378.89 462.45 377.78 C 462.45 376.66 471.67 357.94 472.23 344.26 C 472.79 330.58 463.29 294.53 463.29 294.53 L 457.14 292.85 Z " fill="url(#_lgradient_77)"/><linearGradient id="_lgradient_78" x1="0.5360492901320505" y1="2.201618418968036" x2="0.5756202334376018" y2="-0.44699739351913115" gradientTransform="matrix(182.212,0,0,121.336,323.325,388.864)" gradientUnits="userSpaceOnUse"><stop offset="0%" stop-opacity="1" style="stop-color:rgb(0,0,0)"/><stop offset="96.66666666666667%" stop-opacity="1" style="stop-color:rgb(19,19,159)"/></linearGradient><path d=" M 335.62 510.2 C 335.62 510.2 323.05 395.38 323.33 394.26 C 323.61 393.14 322.21 388.67 337.86 388.95 C 353.5 389.23 497.66 388.95 497.66 388.95 C 497.66 388.95 506.32 387.27 505.48 398.73 C 504.64 410.18 499.33 505.45 499.33 505.45 L 335.62 510.2 Z " fill="url(#_lgradient_78)"/><g opacity="0.3"><ellipse vector-effect="non-scaling-stroke" cx="414.43138701284215" cy="441.75341766484104" rx="11.59499999999997" ry="10.883417664841033" fill="rgb(51,225,173)"/></g><g><linearGradient id="_lgradient_79" x1="-0.20523182446778038" y1="-0.26364573657501544" x2="1.4742147811484194" y2="1.7380179274328582" gradientTransform="matrix(184.174,0,0,106.463,251.643,451.517)" gradientUnits="userSpaceOnUse"><stop offset="1.6666666666666667%" stop-opacity="1" style="stop-color:rgb(19,19,159)"/><stop offset="98.33333333333333%" stop-opacity="1" style="stop-color:rgb(73,220,177)"/></linearGradient><path d=" M 434.98 530.04 C 434.46 528.24 399.5 512.72 389.72 504.62 C 379.94 496.52 351.45 480.31 328.26 471.93 C 305.07 463.55 284.96 453.77 280.21 452.37 C 275.46 450.97 266.52 449.86 257.86 461.31 C 249.2 472.76 250.04 482.26 257.58 489.81 C 265.12 497.35 294.46 523.06 321 530.6 C 347.54 538.14 366.54 542.05 387.21 547.92 C 407.88 553.79 420.73 557.98 420.73 557.98 C 420.73 557.98 440.01 547.36 434.98 530.04 Z " fill="url(#_lgradient_79)"/></g><linearGradient id="_lgradient_80" x1="-0.000015025868778550944" y1="0.5001373040432817" x2="0.9999324999937382" y2="0.5001373040432817" gradientTransform="matrix(99.828,0,0,38.051,423.62,543.586)" gradientUnits="userSpaceOnUse"><stop offset="0%" stop-opacity="1" style="stop-color:rgb(255,255,255)"/><stop offset="12.25%" stop-opacity="1" style="stop-color:rgb(251,253,255)"/><stop offset="24.759999999999998%" stop-opacity="1" style="stop-color:rgb(239,245,255)"/><stop offset="37.4%" stop-opacity="1" style="stop-color:rgb(218,233,255)"/><stop offset="50.129999999999995%" stop-opacity="1" style="stop-color:rgb(189,217,255)"/><stop offset="62.949999999999996%" stop-opacity="1" style="stop-color:rgb(152,195,255)"/><stop offset="75.82%" stop-opacity="1" style="stop-color:rgb(107,169,255)"/><stop offset="88.49000000000001%" stop-opacity="1" style="stop-color:rgb(55,138,255)"/><stop offset="100%" stop-opacity="1" style="stop-color:rgb(0,106,255)"/></linearGradient><path d=" M 423.62 556.58 C 423.62 556.58 433.12 557.42 436.19 559.65 C 439.26 561.88 445.13 565.24 448.2 565.24 C 451.27 565.24 462.17 566.92 469.71 570.27 C 477.25 573.62 494.02 583.12 497.93 581.44 C 501.84 579.76 501.84 579.76 501.84 579.76 C 501.84 579.76 504.63 579.76 506.31 578.36 C 507.99 576.96 508.27 575.57 508.27 575.57 C 508.27 575.57 511.34 575.57 512.74 574.17 C 514.14 572.77 514.14 570.26 514.14 570.26 C 514.14 570.26 516.65 570.54 517.49 568.86 C 518.33 567.18 518.33 567.18 518.33 567.18 C 518.33 567.18 521.4 565.22 522.52 562.99 C 523.64 560.76 523.64 560.48 523.08 559.64 C 522.52 558.8 511.35 551.26 508.83 551.26 C 506.32 551.26 494.02 549.86 487.32 547.91 C 480.62 545.95 476.15 545.4 463.29 543.72 C 450.44 542.05 423.62 556.58 423.62 556.58 Z " fill="url(#_lgradient_80)"/><g><linearGradient id="_lgradient_81" x1="-0.2191760870249177" y1="1.3612648903296705" x2="1.0325008938198261" y2="0.21433990894276955" gradientTransform="matrix(184.174,0,0,106.463,397.643,452.637)" gradientUnits="userSpaceOnUse"><stop offset="2.9166666666666665%" stop-opacity="1" style="stop-color:rgb(73,220,177)"/><stop offset="97.91666666666666%" stop-opacity="1" style="stop-color:rgb(19,19,157)"/><stop offset="99.16666666666667%" stop-opacity="1" style="stop-color:rgb(19,19,159)"/></linearGradient><path d=" M 398.48 531.16 C 399 529.36 433.96 513.84 443.74 505.74 C 453.52 497.64 482.01 481.43 505.2 473.05 C 528.39 464.67 548.5 454.89 553.25 453.49 C 558 452.09 566.94 450.98 575.6 462.43 C 584.26 473.88 583.42 483.38 575.88 490.93 C 568.34 498.47 539 524.18 512.46 531.72 C 485.92 539.26 466.92 543.17 446.25 549.04 C 425.58 554.91 412.73 559.1 412.73 559.1 C 412.73 559.1 393.45 548.48 398.48 531.16 Z " fill="url(#_lgradient_81)"/><linearGradient id="_lgradient_82" x1="0.9800263289079996" y1="0.05919847648483412" x2="-0.19350853426468761" y2="0.5072759844199173" gradientTransform="matrix(123.337,0,0,43.817,286.873,532.83)" gradientUnits="userSpaceOnUse"><stop offset="0%" stop-opacity="1" style="stop-color:rgb(255,255,255)"/><stop offset="12.25%" stop-opacity="1" style="stop-color:rgb(251,253,255)"/><stop offset="24.759999999999998%" stop-opacity="1" style="stop-color:rgb(239,245,255)"/><stop offset="37.4%" stop-opacity="1" style="stop-color:rgb(218,233,255)"/><stop offset="50.129999999999995%" stop-opacity="1" style="stop-color:rgb(189,217,255)"/><stop offset="62.949999999999996%" stop-opacity="1" style="stop-color:rgb(152,195,255)"/><stop offset="75.82%" stop-opacity="1" style="stop-color:rgb(107,169,255)"/><stop offset="88.49000000000001%" stop-opacity="1" style="stop-color:rgb(55,138,255)"/><stop offset="100%" stop-opacity="1" style="stop-color:rgb(0,106,255)"/></linearGradient><path d=" M 398.1 532.83 C 398.1 532.83 367.18 548.1 361.78 548.1 C 356.38 548.1 355.07 546.24 352.47 545.12 C 349.86 544 344.83 544.56 337.57 547.91 C 330.31 551.26 325.09 554.24 320.25 553.87 C 315.41 553.5 305.54 550.52 299.95 553.31 C 294.36 556.1 283.93 566.16 287.66 570.07 C 291.39 573.98 301.07 578.27 305.17 576.03 C 309.27 573.8 320.63 573.24 329.94 574.17 C 339.25 575.1 349.68 578.08 356.95 575.47 C 364.22 572.86 377.06 565.41 388.05 562.62 C 399.04 559.83 410.21 557.78 410.21 557.78 C 410.21 557.78 395.68 550.53 398.1 532.83 Z " fill="url(#_lgradient_82)"/></g><path d=" M 505.52 397.07 C 505.43 387.46 497.65 388.95 497.65 388.95 C 497.65 388.95 353.5 389.23 337.85 388.95 C 322.21 388.67 323.6 393.14 323.32 394.26 C 323.3 394.35 323.35 395.12 323.47 396.46 C 324.77 394.6 326.36 391.47 335.39 391.47 C 345.82 391.47 496.68 391.47 496.68 391.47 C 496.68 391.47 502.37 391.19 505.52 397.07 Z " fill="rgb(255,255,255)"/></g><g><path d=" M 606.57 574.41 L 568.51 399.94 L 564.08 400.57 L 566.64 412.32 C 567.31 413.06 549.61 412.32 549.61 412.32 L 546.92 399.97 L 542.36 400.01 L 580.61 575.35 C 580.87 576.56 582.06 577.32 583.27 577.06 C 584.47 576.8 585.24 575.61 584.98 574.4 L 582.18 561.55 L 599.21 561.55 L 602.22 575.35 C 602.48 576.56 603.67 577.32 604.88 577.06 C 606.09 576.8 606.83 575.62 606.57 574.41 Z  M 550.44 416.14 L 567.47 416.14 L 570.16 428.49 L 553.13 428.49 L 550.44 416.14 L 550.44 416.14 Z  M 553.97 432.3 L 571 432.3 L 573.7 444.65 L 556.67 444.65 L 553.97 432.3 L 553.97 432.3 Z  M 557.49 448.46 L 574.52 448.46 L 577.21 460.81 L 560.18 460.81 L 557.49 448.46 L 557.49 448.46 Z  M 561.02 464.61 L 578.05 464.61 L 580.74 476.96 L 563.71 476.96 L 561.02 464.61 L 561.02 464.61 Z  M 564.54 480.77 L 581.57 480.77 L 584.26 493.12 L 567.23 493.12 L 564.54 480.77 L 564.54 480.77 Z  M 568.07 496.93 L 585.1 496.93 L 587.79 509.28 L 570.76 509.28 L 568.07 496.93 L 568.07 496.93 Z  M 571.59 513.09 L 588.62 513.09 L 591.31 525.44 L 574.28 525.44 L 571.59 513.09 L 571.59 513.09 Z  M 575.12 529.25 L 592.15 529.25 L 594.84 541.6 L 577.81 541.6 L 575.12 529.25 L 575.12 529.25 Z  M 581.34 557.76 L 578.65 545.41 L 595.68 545.41 L 598.37 557.76 L 581.34 557.76 L 581.34 557.76 Z " fill="rgb(0,0,0)"/><g><linearGradient id="_lgradient_83" x1="0.001517307019653913" y1="0.05874526687890125" x2="1.7387245403544085" y2="3.0548020803414984" gradientTransform="matrix(18.029,0,0,34.228,564.032,387.762)" gradientUnits="userSpaceOnUse"><stop offset="0%" stop-opacity="1" style="stop-color:rgb(255,94,0)"/><stop offset="6.65%" stop-opacity="1" style="stop-color:rgb(222,95,40)"/><stop offset="16.189999999999998%" stop-opacity="1" style="stop-color:rgb(181,97,90)"/><stop offset="26.21%" stop-opacity="1" style="stop-color:rgb(144,98,134)"/><stop offset="36.54%" stop-opacity="1" style="stop-color:rgb(113,99,171)"/><stop offset="47.23%" stop-opacity="1" style="stop-color:rgb(88,100,202)"/><stop offset="58.42%" stop-opacity="1" style="stop-color:rgb(69,101,225)"/><stop offset="70.30999999999999%" stop-opacity="1" style="stop-color:rgb(55,102,242)"/><stop offset="83.39999999999999%" stop-opacity="1" style="stop-color:rgb(47,102,252)"/><stop offset="100%" stop-opacity="1" style="stop-color:rgb(44,102,255)"/></linearGradient><path d=" M 582.04 415.07 C 582.07 415.13 582.45 422.67 578.06 421.94 C 575.59 421.53 574.48 411.46 569.96 404.58 C 568.9 402.97 565.08 392.09 564.27 390.42 C 562.97 387.72 567.37 387.19 568.36 388.32 C 569.14 389.21 571.23 393.49 574.75 399.36 C 578.74 405.97 581.27 413.14 582.04 415.07 Z " fill="url(#_lgradient_83)"/><g><path d=" M 583.9 498.18 C 581.91 497.23 577.37 495.94 576.63 493.43 C 576.61 493.36 576.61 493.3 576.59 493.23 C 576.02 490.91 577.78 490.56 579.78 490.98 C 581.83 491.41 587.86 492.52 587.86 492.52 C 587.86 492.52 588.92 495.02 588.92 496.5 C 588.92 498 585.86 499.12 583.9 498.18 Z " fill="rgb(0,0,0)"/></g><path d=" M 587.67 491.22 L 587.83 492.32 C 587.89 492.75 587.68 493.18 587.29 493.38 C 586.61 493.71 585.44 494.11 583.99 493.87 C 583.55 493.79 583.2 493.44 583.13 493 L 582.93 491.61 L 587.67 491.22 L 587.67 491.22 Z " fill="rgb(255,255,255)"/><g><path d=" M 579.64 514.79 C 577.39 513.72 572.23 512.25 571.4 509.4 C 571.37 509.32 571.38 509.25 571.36 509.18 C 570.72 506.55 572.71 506.15 574.98 506.62 C 577.31 507.11 584.15 508.37 584.15 508.37 C 584.15 508.37 585.38 511.24 585.38 513.38 C 585.37 515.52 581.86 515.85 579.64 514.79 Z " fill="rgb(0,0,0)"/></g><path d=" M 583.92 506.89 L 584.1 508.13 C 584.63 509.91 581.39 510.16 579.75 509.88 C 579.25 509.79 578.85 509.4 578.78 508.89 L 578.55 507.31 L 583.92 506.89 L 583.92 506.89 Z " fill="rgb(255,255,255)"/><g><linearGradient id="_lgradient_84" x1="0.5179567478100395" y1="0.08951138080087695" x2="0.47120311267635423" y2="0.9154945318775338" gradientTransform="matrix(19.899,0,0,59.646,570.633,449.38)" gradientUnits="userSpaceOnUse"><stop offset="0%" stop-opacity="1" style="stop-color:rgb(64,51,114)"/><stop offset="14.27%" stop-opacity="1" style="stop-color:rgb(62,54,119)"/><stop offset="31.819999999999997%" stop-opacity="1" style="stop-color:rgb(55,64,134)"/><stop offset="51.09%" stop-opacity="1" style="stop-color:rgb(43,81,159)"/><stop offset="71.59%" stop-opacity="1" style="stop-color:rgb(28,104,194)"/><stop offset="92.86999999999999%" stop-opacity="1" style="stop-color:rgb(8,133,238)"/><stop offset="100%" stop-opacity="1" style="stop-color:rgb(0,144,255)"/></linearGradient><path d=" M 588.97 449.63 C 588.97 449.63 590.18 453.47 590.51 458.14 C 590.92 464 585.51 470.22 586.01 474.05 C 586.91 480.94 588.85 488.14 589.05 490.2 C 589.25 492.27 581.88 493.45 581.34 491.22 C 580.8 488.99 575.49 477.5 574.92 474.23 C 573.93 468.6 580.89 466.01 580.89 466.01 C 580.89 466.01 580.19 481.93 581.05 486.65 C 581.54 489.33 584.66 504.46 585 506.46 C 585.09 507.01 584.09 508.56 582.12 508.91 C 580.03 509.28 577.58 508.72 577.25 507.88 C 576.4 505.68 573.39 489.32 572.92 486.77 C 572.44 484.22 571.05 460.04 570.64 458.25 C 570.22 456.45 588.15 447.81 588.97 449.63 Z " fill="url(#_lgradient_84)"/></g><g><linearGradient id="_lgradient_85" x1="-0.7831494658673321" y1="-0.6226932449362117" x2="0.519867550327145" y2="1.6245418197792332" gradientTransform="matrix(24.172,0,0,45.327,565.81,414.224)" gradientUnits="userSpaceOnUse"><stop offset="0%" stop-opacity="1" style="stop-color:rgb(255,94,0)"/><stop offset="15.1%" stop-opacity="1" style="stop-color:rgb(252,94,3)"/><stop offset="28.000000000000004%" stop-opacity="1" style="stop-color:rgb(244,94,14)"/><stop offset="40.089999999999996%" stop-opacity="1" style="stop-color:rgb(229,95,32)"/><stop offset="51.7%" stop-opacity="1" style="stop-color:rgb(208,96,56)"/><stop offset="62.96000000000001%" stop-opacity="1" style="stop-color:rgb(182,97,89)"/><stop offset="73.95%" stop-opacity="1" style="stop-color:rgb(149,98,128)"/><stop offset="84.73%" stop-opacity="1" style="stop-color:rgb(111,99,175)"/><stop offset="95.08%" stop-opacity="1" style="stop-color:rgb(67,101,227)"/><stop offset="100%" stop-opacity="1" style="stop-color:rgb(44,102,255)"/></linearGradient><path d=" M 565.81 423.34 C 565.77 430.34 570.14 458.95 571.03 459.26 C 576.61 461.18 590.16 453.04 589.98 450.84 C 588.79 436.43 584.09 415.13 581.25 414.43 C 575.28 412.94 565.83 419.91 565.81 423.34 Z " fill="url(#_lgradient_85)"/><linearGradient id="_lgradient_86" x1="-0.00005243227497864211" y1="0.4999679580541798" x2="0.9999563064375181" y2="0.4999679580541798" gradientTransform="matrix(34.33,0,0,34.33,541.97,353.26)" gradientUnits="userSpaceOnUse"><stop offset="0%" stop-opacity="1" style="stop-color:rgb(136,207,218)"/><stop offset="0.8341312%" stop-opacity="1" style="stop-color:rgb(137,207,217)"/><stop offset="47.839999999999996%" stop-opacity="1" style="stop-color:rgb(200,217,187)"/><stop offset="82.17999999999999%" stop-opacity="1" style="stop-color:rgb(240,223,167)"/><stop offset="100%" stop-opacity="1" style="stop-color:rgb(255,225,160)"/></linearGradient><path d=" M 576.3 370.42 C 576.3 379.9 568.62 387.59 559.13 387.59 C 549.65 387.59 541.97 379.9 541.97 370.42 C 541.97 360.94 549.65 353.26 559.13 353.26 C 568.61 353.26 576.3 360.94 576.3 370.42 Z " fill="url(#_lgradient_86)"/><g clip-path="url(#_clipPath_dj0O1COunDmxryVT8RxindBsO1rjDvRU)"><text transform="matrix(1,0,0,1,547.276,376.029)" style="font-family:'Open Sans';font-weight:400;font-size:12.7px;font-style:normal;font-variant-ligatures:none;fill:#431CA3;stroke:none;">PHP</text></g><defs><clipPath id="_clipPath_dj0O1COunDmxryVT8RxindBsO1rjDvRU"><rect x="0" y="0" width="27" height="17.295" transform="matrix(1,0,0,1,547.276,362.455)"/></clipPath></defs><path d=" M 554.01 449.38 C 553.16 449.92 552.68 450.5 552.08 451.4 C 551.18 452.69 553.08 456.59 554.27 455.49 C 554.03 454.27 555.81 453.68 556.45 453.37 C 558.56 452.37 558.77 451.34 558.63 450.54 C 558.24 448.35 556.65 447.7 554.01 449.38 Z " fill="rgb(244,164,119)"/><linearGradient id="_lgradient_87" x1="0.17572786709602894" y1="1.0010062365431516" x2="0.889117866038909" y2="-0.3679342113452311" gradientTransform="matrix(15.967,0,0,30.512,556.569,420.71)" gradientUnits="userSpaceOnUse"><stop offset="0%" stop-opacity="1" style="stop-color:rgb(255,94,0)"/><stop offset="11.77%" stop-opacity="1" style="stop-color:rgb(251,94,4)"/><stop offset="24.23%" stop-opacity="1" style="stop-color:rgb(241,95,17)"/><stop offset="37.01%" stop-opacity="1" style="stop-color:rgb(223,95,38)"/><stop offset="50.01%" stop-opacity="1" style="stop-color:rgb(199,96,68)"/><stop offset="63.190000000000005%" stop-opacity="1" style="stop-color:rgb(167,97,106)"/><stop offset="76.52%" stop-opacity="1" style="stop-color:rgb(128,99,153)"/><stop offset="89.7%" stop-opacity="1" style="stop-color:rgb(84,100,207)"/><stop offset="100%" stop-opacity="1" style="stop-color:rgb(44,102,255)"/></linearGradient><path d=" M 565.02 440.45 C 564.85 442.93 557.99 446.34 556.95 447.89 C 556 449.31 556.82 451.4 559.48 451.21 C 560.83 451.07 572.09 444.95 572.34 442.64 C 572.79 438.45 572.89 420.22 567.72 420.72 C 563.3 421.14 565.2 437.97 565.02 440.45 Z " fill="url(#_lgradient_87)"/><g><path d=" M 576.18 404 C 575.48 399.23 571.62 397.31 566.7 399.44 C 560.82 402 563.21 406.64 563.58 408.67 C 564.05 411.29 565.17 416.45 566.63 416.85 C 567.68 417.14 568.43 416.66 569.53 416.29 C 569.91 417.7 569.86 418.47 570.09 418.66 C 571.16 419.55 576.32 417.19 576.12 415.48 C 576.03 414.7 575.88 413.41 575.79 412.13 C 575.41 408.77 576.76 407.9 576.18 404 Z " fill="rgb(244,164,119)"/><path d=" M 569.27 407.74 C 568.37 407.37 567.47 407.88 567.09 409.73 C 567.06 409.87 566.16 410.22 566.18 409.95 C 566.81 403.65 563.91 405.43 563.27 404.4 C 563.24 401.61 564.28 399.47 567.35 398.53 C 572.34 397 577.21 399.2 577.91 403.98 C 578.39 407.25 576.14 409.49 576.26 412.76 C 576.28 413.21 575.97 413.08 575.02 413.31 C 574.28 413.49 573.42 414.31 572.66 414.17 C 571.71 413.99 569.62 412.07 569.87 410.81 C 570.11 409.66 570.19 408.12 569.27 407.74 Z " fill="rgb(0,120,162)"/></g></g><linearGradient id="_lgradient_88" x1="0.0007943714908549282" y1="0.5000360468609184" x2="1.001244207947849" y2="0.5000360468609184" gradientTransform="matrix(2.813,0,0,33.29,580.727,458.51)" gradientUnits="userSpaceOnUse"><stop offset="4.14%" stop-opacity="1" style="stop-color:rgb(16,0,96)"/><stop offset="100%" stop-opacity="1" style="stop-color:rgb(9,14,150)"/></linearGradient><path d=" M 582.5 491.8 C 582.5 491.8 580.55 479.48 580.74 476.83 C 580.93 474.18 581.66 460.19 581.66 460.19 L 583.54 458.51 C 583.54 458.51 581.68 474.1 581.92 478.7 C 582.16 483.3 582.5 491.8 582.5 491.8 Z " fill="url(#_lgradient_88)"/></g><path d=" M 563.87 388.89 C 563.43 388.11 563.88 385.25 564.57 383.48 C 565.31 381.57 566.63 377.75 567.68 378.23 C 568.34 378.53 567.44 381.44 567.44 384.54 C 567.44 386.51 566.91 388.42 566.58 389.3 C 566.34 389.96 564.47 390.05 563.87 388.89 Z " fill="rgb(244,164,119)"/></g><g><g><g><linearGradient id="_lgradient_89" x1="0.25404896421845624" y1="0.9566688432723023" x2="0.8384744922367856" y2="-0.1286911701555784" gradientTransform="matrix(42.48,0,0,42.48,272.1,326.66)" gradientUnits="userSpaceOnUse"><stop offset="0%" stop-opacity="1" style="stop-color:rgb(136,207,218)"/><stop offset="0.8341312%" stop-opacity="1" style="stop-color:rgb(137,207,217)"/><stop offset="47.839999999999996%" stop-opacity="1" style="stop-color:rgb(200,217,187)"/><stop offset="82.17999999999999%" stop-opacity="1" style="stop-color:rgb(240,223,167)"/><stop offset="100%" stop-opacity="1" style="stop-color:rgb(255,225,160)"/></linearGradient><path d=" M 314.58 347.9 C 314.58 336.17 305.07 326.66 293.34 326.66 C 281.61 326.66 272.1 336.17 272.1 347.9 C 272.1 359.63 281.61 369.14 293.34 369.14 C 305.07 369.15 314.58 359.64 314.58 347.9 Z " fill="url(#_lgradient_89)"/><g clip-path="url(#_clipPath_bOGctVzjdMdOvWVWrGzQXqnej2D1iFkT)"><text transform="matrix(1,0,0,1,274.01,353.264)" style="font-family:'Open Sans';font-weight:400;font-size:17.4px;font-style:normal;font-variant-ligatures:none;fill:#125CAE;stroke:none;">CSS3</text></g><defs><clipPath id="_clipPath_bOGctVzjdMdOvWVWrGzQXqnej2D1iFkT"><rect x="0" y="0" width="43" height="23.696" transform="matrix(1,0,0,1,274.01,334.666)"/></clipPath></defs><path d=" M 280.35 451.86 C 280.35 451.86 280.29 452.89 280.26 453.76 C 280.25 453.99 280.25 454.21 280.25 454.4 C 280.25 454.67 281.63 454.89 282.76 454.58 C 283.65 454.34 284.42 453.65 284.06 453.24 C 283.68 452.82 283.29 451.34 283.29 451.34 L 280.35 451.86 L 280.35 451.86 Z " fill="rgb(255,255,255)"/><path d=" M 280.27 453.76 C 280.27 453.76 282.34 454.66 284.07 453.24 C 285 453.2 292.9 454.93 292.11 456.19 C 291.31 457.47 281.08 457.99 280.18 457.31 C 279.83 457.05 279.91 454.63 280.27 453.76 Z " fill="rgb(0,0,0)"/><g><path d=" M 263.81 449.69 C 263.81 449.69 263.63 450.7 263.51 451.56 C 263.48 451.79 263.45 452 263.43 452.2 C 263.4 452.47 264.75 452.84 265.91 452.66 C 266.82 452.52 267.67 451.92 267.35 451.47 C 267.02 451.01 266.79 449.5 266.79 449.5 L 263.81 449.69 L 263.81 449.69 Z " fill="rgb(235,190,175)"/><path d=" M 277.76 408.82 L 270.85 406.01 C 270.36 413.13 271.05 418.78 269.04 429.52 C 268.19 434.04 264.05 444.56 262.44 449.71 C 262.91 450.81 267.57 450.94 268.21 449.79 C 269.04 448.03 274.47 438.02 275.96 431.62 C 276.64 428.66 277.79 415.98 277.76 408.82 Z " fill="rgb(0,0,0)"/><path d=" M 263.51 451.57 C 263.51 451.57 265.46 452.7 267.34 451.48 C 268.27 451.54 275.94 453.07 275.09 454.75 C 274.75 455.42 263.85 455.87 263.03 455.1 C 262.72 454.79 263.07 452.4 263.51 451.57 Z " fill="rgb(0,0,0)"/></g><path d=" M 273.48 376.16 C 273.48 376.16 274.09 374.11 273.93 373.1 C 273.77 372.09 271.5 370.71 271.14 368.6 C 270.78 366.49 272 363.66 275.16 363.44 C 279.93 363.1 279.78 366.83 279.95 368.12 C 280.23 370.21 280.01 373.54 279.53 373.77 C 279.39 373.84 278.8 373.91 277.77 373.56 C 277.59 374.08 277.13 376.51 277.48 377.26 C 277.83 378.01 273.48 376.16 273.48 376.16 Z " fill="rgb(255,255,255)"/><path d=" M 271.09 401.45 C 270.85 403.01 270.69 404.73 270.84 406.02 C 271.6 412.21 276.19 419.97 277.75 430.3 C 278.44 434.85 278.78 447.22 278.98 452.03 C 279.57 453.08 284.21 452.68 284.72 451.48 C 284.21 449.22 286.55 434.06 285.89 426.37 C 285.61 423.08 280.8 400.18 280.8 400.18 C 280.8 400.18 274.29 399.61 271.09 401.45 Z " fill="rgb(0,0,0)"/><linearGradient id="_lgradient_90" x1="0.34617850782295534" y1="1.2107450192053264" x2="0.4458863313932546" y2="0.15651921551048065" gradientTransform="matrix(13.601,0,0,30.774,269.77,374.85)" gradientUnits="userSpaceOnUse"><stop offset="4.14%" stop-opacity="1" style="stop-color:rgb(235,51,0)"/><stop offset="100%" stop-opacity="1" style="stop-color:rgb(255,136,0)"/></linearGradient><path d=" M 277.92 376.44 C 277.92 376.44 274.96 374.52 272.55 374.9 C 272.21 375.12 272.1 376.17 271.64 377.44 C 271.14 378.83 270.3 380.52 270.1 382.43 C 269.76 385.78 270.4 394.87 269.77 403.32 C 270.76 404.91 278.41 407.36 282.45 403.77 C 282.45 403.77 281.4 398.58 281.16 394.38 C 280.91 390.03 283.86 389.57 283.3 386.14 C 282.94 383.94 278.92 381.33 277.83 378.02 C 277.69 377.58 278 376.93 277.92 376.44 Z " fill="url(#_lgradient_90)"/><linearGradient id="_lgradient_91" x1="0.31203388598933657" y1="0.7013904257837353" x2="0.6839643201713692" y2="-0.5915771291749006" gradientTransform="matrix(12.576,0,0,23.883,267.384,361.677)" gradientUnits="userSpaceOnUse"><stop offset="19.31%" stop-opacity="1" style="stop-color:rgb(47,17,9)"/><stop offset="68.08999999999999%" stop-opacity="1" style="stop-color:rgb(122,62,37)"/></linearGradient><path d=" M 279.65 363.88 C 281.22 367.45 276.39 367.26 275.14 373.7 C 274.33 377.86 269.94 379.28 270.1 385.56 C 267.34 385.02 266.16 380.5 269.09 375.35 C 270.97 372.05 269.44 368.67 269.97 366.04 C 271.03 360.81 278.17 360.53 279.65 363.88 Z " fill="url(#_lgradient_91)"/><path d=" M 273.4 382.33 C 273.69 380.05 275.88 380.15 279.77 379.51 C 281.59 379.21 284.94 378.53 287.52 377.64 C 288.57 377.28 290.1 366.8 290.25 363.98 C 290.31 362.76 289.43 362.49 288.89 361.47 C 288.36 360.46 288.04 358.74 288.58 358.57 C 288.98 358.44 289.3 359.99 289.6 360.06 C 289.49 358.86 289.15 357.03 289.62 355.83 C 290.09 354.63 291.83 355.4 292.24 355.79 C 292.74 356.26 292.89 357.01 292.98 358.09 C 293.1 359.38 293.57 361.1 293.16 361.97 C 292.81 362.73 292.48 363.76 292.49 364.3 C 292.5 364.84 292.35 379.96 291.01 380.85 C 289.19 382.06 284.13 383.64 279.46 384.45 C 275.76 385.08 273.17 384.12 273.4 382.33 Z " fill="rgb(255,255,255)"/></g></g></g><g><linearGradient id="_lgradient_92" x1="0.9422062712504715" y1="0.9185851907820162" x2="0.11494333207404561" y2="0.13563845863241308" gradientTransform="matrix(52.94,0,0,52.94,600.62,448.58)" gradientUnits="userSpaceOnUse"><stop offset="0%" stop-opacity="1" style="stop-color:rgb(136,207,218)"/><stop offset="0.8341312%" stop-opacity="1" style="stop-color:rgb(137,207,217)"/><stop offset="47.839999999999996%" stop-opacity="1" style="stop-color:rgb(200,217,187)"/><stop offset="82.17999999999999%" stop-opacity="1" style="stop-color:rgb(240,223,167)"/><stop offset="100%" stop-opacity="1" style="stop-color:rgb(255,225,160)"/></linearGradient><path d=" M 600.62 475.05 C 600.62 460.43 612.47 448.58 627.09 448.58 C 641.71 448.58 653.56 460.43 653.56 475.05 C 653.56 489.67 641.71 501.52 627.09 501.52 C 612.47 501.51 600.62 489.66 600.62 475.05 Z " fill="url(#_lgradient_92)"/><g clip-path="url(#_clipPath_rGEMtK3kiO4qbEhMHmqCQaqZAYd9nDE2)"><text transform="matrix(1,0,0,1,607.004,481.498)" style="font-family:'Open Sans';font-weight:400;font-size:20px;font-style:normal;font-variant-ligatures:none;fill:#731BA3;stroke:none;">Java</text></g><defs><clipPath id="_clipPath_rGEMtK3kiO4qbEhMHmqCQaqZAYd9nDE2"><rect x="0" y="0" width="40" height="27.236" transform="matrix(1,0,0,1,605.441,460.121)"/></clipPath></defs><g><g><path d=" M 654.03 451.15 L 656.56 452.1 C 657.38 452.41 658.03 453.06 658.34 453.88 L 659.55 457.12 C 660 458.33 660.08 459.65 659.78 460.9 C 659.37 462.61 658.55 464.18 657.41 465.51 C 662.65 466.24 666.87 466.35 672.01 465.47 C 670.65 461.22 669.61 457.52 666.65 454.16 L 665.53 452.83 C 665.92 452.76 666.9 443.87 665.7 441.82 C 663.36 437.82 658.61 438.66 657.25 439.6 C 655.28 441.19 655.73 443.05 654.98 443.8 C 654.15 444.64 653.46 444.67 653.42 445.01 C 653.38 445.35 653.83 445.66 653.97 445.88 C 653.8 447.56 653.11 448.9 653.14 449.94 C 653.16 450.37 653.61 450.99 654.03 451.15 Z " fill="rgb(255,255,255)"/></g><g opacity="0.35"><path d=" M 658.34 453.88 L 658.9 455.38 C 658.42 452.93 660.26 451.79 660.26 451.79 C 660.25 451.79 659.33 452.12 657.84 452.03 C 657.12 451.99 656.06 451.75 655.54 451.61 C 655.02 451.46 654.27 451.24 654.27 451.24 L 654.27 451.24 L 656.56 452.1 C 657.38 452.4 658.03 453.05 658.34 453.88 Z " fill="rgb(245,143,158)"/></g><g><g><g><g><path d=" M 693.88 550.19 C 693.88 550.19 694.89 551.47 697.04 552.83 C 699.14 554.15 701.24 555.45 700.93 556.07 C 700.62 556.69 695.61 564.01 692.68 565.7 C 689.75 567.4 692.26 564.21 692.42 563.44 C 692.58 562.67 694.07 559 692.84 557.3 C 691.61 555.61 690.14 554.6 690.53 553.83 C 690.91 553.06 692.84 549.67 693.88 550.19 Z " fill="rgb(255,255,255)"/><g><path d=" M 672.42 503.18 C 672.42 503.18 671.95 523.78 674.42 527.48 C 676.89 531.18 692.04 544.23 695.33 550.8 C 695.33 550.8 693.28 555.73 689.58 555.53 C 689.58 555.53 681.09 545.56 674.84 541.83 C 669.51 538.65 666.36 535.91 665.23 533.13 C 664.1 530.35 655.67 504.15 655.67 504.15 L 672.42 503.18 L 672.42 503.18 Z " fill="rgb(0,0,0)"/></g><path d=" M 697.98 553.42 C 697.98 553.42 698.62 555.14 696.73 556.29 C 695.13 557.26 692.58 557.07 692.71 558.7 C 692.85 560.49 692.36 563.53 690.92 565.29 C 689.87 566.58 686.84 569.02 687.52 569.62 C 688.01 570.06 692.92 570.87 698.28 565.61 C 703.91 560.08 704.08 557.2 703.83 556.61 C 703.48 555.86 700.87 553.82 697.98 553.42 Z " fill="rgb(0,0,0)"/></g><g><path d=" M 652.23 560 C 652.23 560 652.31 564.32 651.92 565.39 C 651.53 566.47 642.6 566.31 640.59 564.62 C 638.59 562.92 645.37 562.54 646.68 561.22 C 647.27 560.63 647.93 558.99 647.93 558.99 L 652.23 560 L 652.23 560 Z " fill="rgb(255,255,255)"/><g><path d=" M 671.8 491.21 C 671.8 491.21 674.12 497.21 673.78 501.55 C 673.13 509.93 662.35 527.89 661.11 531.59 C 659.88 535.29 662.45 541.04 659.98 547 C 657.51 552.96 653.2 560.56 653.1 560.97 C 653 561.38 647.88 561.91 646.77 559.29 C 647.86 555.75 649.82 549.07 650.54 543 C 651.26 536.94 652.47 529.08 652.68 525.28 C 652.89 521.48 657.74 491.81 657.74 491.81 C 657.74 491.81 659.78 492.13 671.8 491.21 Z " fill="rgb(0,0,0)"/></g><path d=" M 652.2 562.8 C 652.2 562.8 651.61 565.39 649.04 564.72 C 646.47 564.05 647.5 562.4 646.63 561.73 C 646.09 561.31 644.81 561.57 641.99 562.2 C 638.41 563 632.69 563.37 632.68 565.39 C 632.68 566.37 637.05 568.72 642.27 569.29 C 647.49 569.86 652.58 568.78 653.14 568.47 C 653.72 568.16 653.29 564.42 652.2 562.8 Z " fill="rgb(0,0,0)"/></g><g><linearGradient id="_lgradient_93" x1="0.384592905772422" y1="1.0984098351740403" x2="0.5229435481623179" y2="-0.021777964118177895" gradientTransform="matrix(19.322,0,0,40.011,654.168,456.43)" gradientUnits="userSpaceOnUse"><stop offset="0%" stop-opacity="1" style="stop-color:rgb(118,51,255)"/><stop offset="15.85%" stop-opacity="1" style="stop-color:rgb(113,55,255)"/><stop offset="35.35%" stop-opacity="1" style="stop-color:rgb(98,67,255)"/><stop offset="56.76%" stop-opacity="1" style="stop-color:rgb(73,87,255)"/><stop offset="79.36999999999999%" stop-opacity="1" style="stop-color:rgb(38,114,255)"/><stop offset="100%" stop-opacity="1" style="stop-color:rgb(0,144,255)"/></linearGradient><path d=" M 659.23 460.81 C 659.96 458.03 663.48 455.87 666.6 456.56 C 669.15 457.12 672.21 462.13 672.72 466.04 C 673.23 469.94 670.8 487.15 673.49 493.47 C 673.49 493.47 659.81 497.81 654.47 496 C 654.47 496 656.14 489.93 656.66 485.36 C 657.63 476.81 654.06 475.84 654.17 471.15 C 654.25 468.2 658.66 462.97 659.23 460.81 Z " fill="url(#_lgradient_93)"/><path d=" M 665.91 462.68 C 667.94 462.29 669.67 464.1 670.43 469.43 C 671.39 476.12 672.42 485.82 671.84 488.87 C 671.51 490.57 661.06 488.39 651.74 485.2 C 650.31 484.71 648.35 486.38 647.02 486.27 C 644.43 486.05 640.39 484.84 641.02 483.44 C 641.39 482.61 644.06 482.14 643.92 482.03 L 640.65 480.8 C 640.73 480 642.5 480.25 644.28 479.92 C 646.9 479.45 649.19 479.93 651.76 480.9 C 653.59 481.59 662.29 483.44 665.66 482.82 C 665.12 479.06 664.4 474.43 664.02 472.03 C 663.15 466.47 662.66 463.31 665.91 462.68 Z " fill="rgb(255,255,255)"/><linearGradient id="_lgradient_94" x1="0.4249059436643279" y1="-0.08121166652371414" x2="0.5143919339937894" y2="1.21364646315484" gradientTransform="matrix(8.595,0,0,11.101,662.735,461.449)" gradientUnits="userSpaceOnUse"><stop offset="0%" stop-opacity="1" style="stop-color:rgb(118,51,255)"/><stop offset="15.85%" stop-opacity="1" style="stop-color:rgb(113,55,255)"/><stop offset="35.35%" stop-opacity="1" style="stop-color:rgb(98,67,255)"/><stop offset="56.76%" stop-opacity="1" style="stop-color:rgb(73,87,255)"/><stop offset="79.36999999999999%" stop-opacity="1" style="stop-color:rgb(38,114,255)"/><stop offset="100%" stop-opacity="1" style="stop-color:rgb(0,144,255)"/></linearGradient><path d=" M 663.23 472.55 C 665.4 472.07 667.58 471.9 669.81 471.75 C 670.32 471.72 670.82 471.68 671.33 471.65 C 671.24 470.83 671.14 470.03 671.03 469.28 C 670.27 463.95 667.81 460.87 665.74 461.54 C 662.63 462.55 662.28 466.49 663.14 472.04 C 663.17 472.2 663.2 472.37 663.23 472.55 Z " fill="url(#_lgradient_94)"/></g></g></g></g><path d=" M 664.9 437.36 C 660.76 435.84 657.73 438.53 657.26 439.59 C 660.41 439.98 658.16 443.24 660.47 444.99 C 662.61 446.61 661.6 449.03 662.03 453.26 C 662.73 460.08 670.96 458.72 672.49 464.83 C 675.57 456.9 667.98 453.17 668.83 447.95 C 669.7 442.59 668.33 438.62 664.9 437.36 Z " fill="rgb(0,0,0)"/></g></g><g><linearGradient id="_lgradient_95" x1="0.06690565331336629" y1="0.9670778734556329" x2="0.8670086110071134" y2="0.10422313740172107" gradientTransform="matrix(53.42,0,0,53.42,215.76,433.71)" gradientUnits="userSpaceOnUse"><stop offset="0%" stop-opacity="1" style="stop-color:rgb(136,207,218)"/><stop offset="0.8341312%" stop-opacity="1" style="stop-color:rgb(137,207,217)"/><stop offset="47.839999999999996%" stop-opacity="1" style="stop-color:rgb(200,217,187)"/><stop offset="82.17999999999999%" stop-opacity="1" style="stop-color:rgb(240,223,167)"/><stop offset="100%" stop-opacity="1" style="stop-color:rgb(255,225,160)"/></linearGradient><circle vector-effect="non-scaling-stroke" cx="242.47" cy="460.42" r="26.710000000000008" fill="url(#_lgradient_95)"/><g clip-path="url(#_clipPath_HjERbB8AQY8xtVe96hk45PrbfNXDYSeK)"><text transform="matrix(0.68,0,0,1,219.526,467.587)" style="font-family:'Open Sans';font-weight:400;font-size:21.2px;font-style:normal;font-variant-ligatures:none;fill:#431CA3;stroke:none;">HTML5</text></g><defs><clipPath id="_clipPath_HjERbB8AQY8xtVe96hk45PrbfNXDYSeK"><rect x="0" y="0" width="72" height="28.871" transform="matrix(0.68,0,0,1,219.526,444.927)"/></clipPath></defs><g><g><path d=" M 218.43 437.87 L 215.58 438.93 C 214.65 439.28 213.92 440.01 213.58 440.93 L 212.22 444.57 C 211.71 445.93 211.62 447.42 211.96 448.83 C 212.42 450.75 213.34 452.53 214.63 454.03 C 208.72 454.85 203.97 454.98 198.18 453.98 C 199.71 449.19 200.88 445.02 204.21 441.24 L 205.47 439.74 C 205.03 439.66 203.92 429.65 205.27 427.33 C 207.9 422.82 213.25 423.77 214.79 424.83 C 217.01 426.62 216.5 428.71 217.35 429.56 C 218.29 430.5 219.07 430.54 219.11 430.92 C 219.16 431.3 218.65 431.66 218.49 431.9 C 218.68 433.79 219.46 435.3 219.42 436.47 C 219.41 436.99 218.91 437.69 218.43 437.87 Z " fill="rgb(104,66,4)"/></g><g><g><g><g><path d=" M 173.54 549.43 C 173.54 549.43 172.4 550.87 169.98 552.4 C 167.62 553.89 165.25 555.35 165.59 556.05 C 165.94 556.74 171.58 564.99 174.88 566.9 C 178.18 568.81 175.35 565.22 175.18 564.35 C 175.01 563.48 173.32 559.34 174.71 557.43 C 176.1 555.52 177.75 554.39 177.31 553.52 C 176.88 552.67 174.71 548.85 173.54 549.43 Z " fill="rgb(0,0,0)"/><g><linearGradient id="_lgradient_96" x1="1.000078352361764" y1="0.5000715860978993" x2="-0.00008506827848631104" y2="0.5000715860978991" gradientTransform="matrix(44.67,0,0,58.977,171.91,496.47)" gradientUnits="userSpaceOnUse"><stop offset="0%" stop-opacity="1" style="stop-color:rgb(49,19,65)"/><stop offset="22.99%" stop-opacity="1" style="stop-color:rgb(49,19,194)"/><stop offset="34.79%" stop-opacity="1" style="stop-color:rgb(47,24,197)"/><stop offset="49.309999999999995%" stop-opacity="1" style="stop-color:rgb(41,39,204)"/><stop offset="65.24%" stop-opacity="1" style="stop-color:rgb(31,64,216)"/><stop offset="82.19%" stop-opacity="1" style="stop-color:rgb(18,99,233)"/><stop offset="99.78%" stop-opacity="1" style="stop-color:rgb(0,143,255)"/><stop offset="100%" stop-opacity="1" style="stop-color:rgb(0,144,255)"/></linearGradient><path d=" M 197.71 496.47 C 197.71 496.47 198.24 519.68 195.46 523.85 C 192.68 528.02 175.61 542.72 171.91 550.12 C 171.91 550.12 174.22 555.67 178.39 555.44 C 178.39 555.44 187.95 544.21 194.99 540.01 C 200.99 536.43 204.54 533.34 205.82 530.21 C 207.09 527.08 216.58 497.57 216.58 497.57 L 197.71 496.47 L 197.71 496.47 Z " fill="url(#_lgradient_96)"/></g><path d=" M 168.92 553.08 C 168.92 553.08 168.2 555.02 170.33 556.32 C 172.13 557.42 175.01 557.2 174.86 559.04 C 174.7 561.05 175.25 564.49 176.88 566.47 C 178.07 567.92 181.48 570.67 180.71 571.35 C 180.16 571.84 174.63 572.76 168.6 566.84 C 162.25 560.61 162.06 557.36 162.35 556.71 C 162.73 555.81 165.67 553.52 168.92 553.08 Z " fill="rgb(0,0,0)"/></g><g><path d=" M 220.46 560.48 C 220.46 560.48 220.37 565.34 220.81 566.56 C 221.24 567.78 231.31 567.6 233.57 565.69 C 235.83 563.78 228.19 563.34 226.71 561.87 C 226.05 561.21 225.31 559.36 225.31 559.36 L 220.46 560.48 L 220.46 560.48 Z " fill="rgb(0,0,0)"/><g><linearGradient id="_lgradient_97" x1="0.20025750245359486" y1="-0.11276965723385768" x2="0.36762823687850427" y2="0.7496119832310076" gradientTransform="matrix(30.458,0,0,78.97,196.142,482.99)" gradientUnits="userSpaceOnUse"><stop offset="0%" stop-opacity="1" style="stop-color:rgb(118,51,255)"/><stop offset="15.85%" stop-opacity="1" style="stop-color:rgb(113,55,255)"/><stop offset="35.35%" stop-opacity="1" style="stop-color:rgb(98,67,255)"/><stop offset="56.76%" stop-opacity="1" style="stop-color:rgb(73,87,255)"/><stop offset="79.36999999999999%" stop-opacity="1" style="stop-color:rgb(38,114,255)"/><stop offset="100%" stop-opacity="1" style="stop-color:rgb(0,144,255)"/></linearGradient><path d=" M 198.41 482.99 C 198.41 482.99 195.8 489.75 196.18 494.64 C 196.91 504.08 209.06 524.31 210.45 528.48 C 211.84 532.65 208.95 539.13 211.72 545.84 C 214.5 552.55 219.36 561.12 219.48 561.58 C 219.6 562.04 225.37 562.63 226.6 559.68 C 225.38 555.69 223.17 548.16 222.36 541.33 C 221.55 534.5 220.18 525.65 219.95 521.37 C 219.72 517.09 214.25 483.67 214.25 483.67 C 214.25 483.67 211.95 484.03 198.41 482.99 Z " fill="url(#_lgradient_97)"/></g><path d=" M 220.49 563.64 C 220.49 563.64 221.16 566.56 224.05 565.81 C 226.94 565.06 225.79 563.19 226.76 562.45 C 227.37 561.98 228.81 562.27 231.98 562.98 C 236.01 563.88 242.46 564.3 242.46 566.57 C 242.46 567.68 237.54 570.33 231.66 570.96 C 225.78 571.6 220.05 570.38 219.41 570.03 C 218.78 569.68 219.27 565.47 220.49 563.64 Z " fill="rgb(0,0,0)"/></g><g><linearGradient id="_lgradient_98" x1="0.6167307508548454" y1="1.0986378912519381" x2="0.47834211106466407" y2="-0.021859275953650448" gradientTransform="matrix(21.753,0,0,45.061,196.49,443.816)" gradientUnits="userSpaceOnUse"><stop offset="4.14%" stop-opacity="1" style="stop-color:rgb(235,51,0)"/><stop offset="100%" stop-opacity="1" style="stop-color:rgb(255,136,0)"/></linearGradient><path d=" M 212.57 448.75 C 211.75 445.62 207.78 443.19 204.26 443.96 C 201.38 444.59 197.94 450.23 197.36 454.63 C 196.78 459.03 199.52 478.41 196.49 485.53 C 196.49 485.53 211.89 490.42 217.91 488.38 C 217.91 488.38 216.02 481.54 215.44 476.4 C 214.35 466.77 218.37 465.68 218.24 460.39 C 218.18 457.07 213.21 451.18 212.57 448.75 Z " fill="url(#_lgradient_98)"/><path d=" M 205.05 450.86 C 202.77 450.42 200.82 452.46 199.96 458.46 C 198.88 465.99 197.72 476.92 198.38 480.35 C 198.75 482.27 210.52 479.81 221.03 476.22 C 222.64 475.67 224.84 477.55 226.35 477.42 C 229.26 477.17 233.81 475.81 233.11 474.23 C 232.69 473.29 229.69 472.76 229.85 472.64 L 233.54 471.26 C 233.45 470.36 231.46 470.64 229.45 470.27 C 226.5 469.74 223.91 470.28 221.02 471.37 C 218.96 472.15 209.16 474.23 205.37 473.53 C 205.98 469.3 206.79 464.08 207.21 461.38 C 208.16 455.13 208.71 451.56 205.05 450.86 Z " fill="rgb(104,66,4)"/><linearGradient id="_lgradient_99" x1="0.5751870874005363" y1="-0.08014602172212903" x2="0.4857669606777424" y2="1.2137885044379082" gradientTransform="matrix(9.686,0,0,12.514,198.94,449.456)" gradientUnits="userSpaceOnUse"><stop offset="0%" stop-opacity="1" style="stop-color:rgb(255,94,0)"/><stop offset="15.1%" stop-opacity="1" style="stop-color:rgb(252,94,3)"/><stop offset="28.000000000000004%" stop-opacity="1" style="stop-color:rgb(244,94,14)"/><stop offset="40.089999999999996%" stop-opacity="1" style="stop-color:rgb(229,95,32)"/><stop offset="51.7%" stop-opacity="1" style="stop-color:rgb(208,96,56)"/><stop offset="62.96000000000001%" stop-opacity="1" style="stop-color:rgb(182,97,89)"/><stop offset="73.95%" stop-opacity="1" style="stop-color:rgb(149,98,128)"/><stop offset="84.73%" stop-opacity="1" style="stop-color:rgb(111,99,175)"/><stop offset="95.08%" stop-opacity="1" style="stop-color:rgb(67,101,227)"/><stop offset="100%" stop-opacity="1" style="stop-color:rgb(44,102,255)"/></linearGradient><path d=" M 208.06 461.97 C 205.62 461.42 203.16 461.23 200.65 461.06 C 200.08 461.02 199.51 460.98 198.94 460.94 C 199.05 460.02 199.16 459.12 199.28 458.27 C 200.14 452.27 202.91 448.8 205.24 449.56 C 208.74 450.7 209.14 455.13 208.17 461.39 C 208.14 461.57 208.1 461.77 208.06 461.97 Z " fill="url(#_lgradient_99)"/></g></g></g></g><path d=" M 206.19 422.33 C 210.86 420.62 214.26 423.65 214.79 424.84 C 211.25 425.27 213.77 428.95 211.18 430.92 C 208.77 432.74 209.91 435.47 209.42 440.24 C 208.63 447.92 199.35 446.39 197.64 453.27 C 194.17 444.34 202.72 440.13 201.77 434.26 C 200.78 428.22 202.33 423.75 206.19 422.33 Z " fill="rgb(0,0,0)"/></g></g></g></g></svg>